<mxfile host="app.diagrams.net" agent="Mozilla/5.0 (Windows NT 10.0; Win64; x64) AppleWebKit/537.36 (KHTML, like Gecko) Chrome/140.0.0.0 Safari/537.36" version="28.2.5">
  <diagram name="PÃ¡gina-1" id="9Udow1t1NZ8ONBax7nDM">
    <mxGraphModel dx="815" dy="444" grid="0" gridSize="10" guides="1" tooltips="1" connect="1" arrows="1" fold="1" page="1" pageScale="1" pageWidth="2336" pageHeight="1654" math="0" shadow="0">
      <root>
        <mxCell id="0" />
        <mxCell id="1" parent="0" />
        <mxCell id="aTb8cRAbQJP4SxeHpOCR-22" value="USUARIOS" style="shape=table;startSize=30;container=1;collapsible=1;childLayout=tableLayout;fixedRows=1;rowLines=0;fontStyle=1;align=center;resizeLast=1;html=1;rounded=1;fillColor=#d5e8d4;strokeColor=#82b366;" parent="1" vertex="1">
          <mxGeometry x="460" y="720" width="240" height="307.33333333333326" as="geometry" />
        </mxCell>
        <mxCell id="aTb8cRAbQJP4SxeHpOCR-23" value="" style="shape=tableRow;horizontal=0;startSize=0;swimlaneHead=0;swimlaneBody=0;fillColor=none;collapsible=0;dropTarget=0;points=[[0,0.5],[1,0.5]];portConstraint=eastwest;top=0;left=0;right=0;bottom=1;fontStyle=0;strokeColor=light-dark(#000000,#99CCFF);" parent="aTb8cRAbQJP4SxeHpOCR-22" vertex="1">
          <mxGeometry y="30" width="240" height="37" as="geometry" />
        </mxCell>
        <mxCell id="aTb8cRAbQJP4SxeHpOCR-24" value="PK" style="shape=partialRectangle;connectable=0;fillColor=none;top=0;left=0;bottom=0;right=0;fontStyle=1;overflow=hidden;whiteSpace=wrap;html=1;" parent="aTb8cRAbQJP4SxeHpOCR-23" vertex="1">
          <mxGeometry width="37.92307692307702" height="37" as="geometry">
            <mxRectangle width="37.92307692307702" height="37" as="alternateBounds" />
          </mxGeometry>
        </mxCell>
        <mxCell id="aTb8cRAbQJP4SxeHpOCR-25" value="&lt;u&gt;usu_id&lt;/u&gt;" style="shape=partialRectangle;connectable=0;fillColor=none;top=0;left=0;bottom=0;right=0;align=left;spacingLeft=6;fontStyle=1;overflow=hidden;whiteSpace=wrap;html=1;strokeColor=light-dark(#000000,#99CCFF);" parent="aTb8cRAbQJP4SxeHpOCR-23" vertex="1">
          <mxGeometry x="37.92307692307702" width="202.07692307692298" height="37" as="geometry">
            <mxRectangle width="202.07692307692298" height="37" as="alternateBounds" />
          </mxGeometry>
        </mxCell>
        <mxCell id="aTb8cRAbQJP4SxeHpOCR-216" value="" style="shape=tableRow;horizontal=0;startSize=0;swimlaneHead=0;swimlaneBody=0;fillColor=none;collapsible=0;dropTarget=0;points=[[0,0.5],[1,0.5]];portConstraint=eastwest;top=0;left=0;right=0;bottom=0;strokeColor=light-dark(#000000,#66B2FF);" parent="aTb8cRAbQJP4SxeHpOCR-22" vertex="1">
          <mxGeometry y="67" width="240" height="30" as="geometry" />
        </mxCell>
        <mxCell id="aTb8cRAbQJP4SxeHpOCR-217" value="" style="shape=partialRectangle;connectable=0;fillColor=none;top=0;left=0;bottom=0;right=0;editable=1;overflow=hidden;whiteSpace=wrap;html=1;" parent="aTb8cRAbQJP4SxeHpOCR-216" vertex="1">
          <mxGeometry width="37.92307692307702" height="30" as="geometry">
            <mxRectangle width="37.92307692307702" height="30" as="alternateBounds" />
          </mxGeometry>
        </mxCell>
        <mxCell id="aTb8cRAbQJP4SxeHpOCR-218" value="&lt;b&gt;usu_nome&lt;/b&gt;" style="shape=partialRectangle;connectable=0;fillColor=none;top=0;left=0;bottom=0;right=0;align=left;spacingLeft=6;overflow=hidden;whiteSpace=wrap;html=1;strokeColor=light-dark(#000000,#99CCFF);" parent="aTb8cRAbQJP4SxeHpOCR-216" vertex="1">
          <mxGeometry x="37.92307692307702" width="202.07692307692298" height="30" as="geometry">
            <mxRectangle width="202.07692307692298" height="30" as="alternateBounds" />
          </mxGeometry>
        </mxCell>
        <mxCell id="aTb8cRAbQJP4SxeHpOCR-29" value="" style="shape=tableRow;horizontal=0;startSize=0;swimlaneHead=0;swimlaneBody=0;fillColor=none;collapsible=0;dropTarget=0;points=[[0,0.5],[1,0.5]];portConstraint=eastwest;top=0;left=0;right=0;bottom=0;" parent="aTb8cRAbQJP4SxeHpOCR-22" vertex="1">
          <mxGeometry y="97" width="240" height="30" as="geometry" />
        </mxCell>
        <mxCell id="aTb8cRAbQJP4SxeHpOCR-30" value="" style="shape=partialRectangle;connectable=0;fillColor=none;top=0;left=0;bottom=0;right=0;editable=1;overflow=hidden;whiteSpace=wrap;html=1;" parent="aTb8cRAbQJP4SxeHpOCR-29" vertex="1">
          <mxGeometry width="37.92307692307702" height="30" as="geometry">
            <mxRectangle width="37.92307692307702" height="30" as="alternateBounds" />
          </mxGeometry>
        </mxCell>
        <mxCell id="aTb8cRAbQJP4SxeHpOCR-31" value="&lt;b&gt;usu_email&lt;/b&gt;" style="shape=partialRectangle;connectable=0;fillColor=none;top=0;left=0;bottom=0;right=0;align=left;spacingLeft=6;overflow=hidden;whiteSpace=wrap;html=1;" parent="aTb8cRAbQJP4SxeHpOCR-29" vertex="1">
          <mxGeometry x="37.92307692307702" width="202.07692307692298" height="30" as="geometry">
            <mxRectangle width="202.07692307692298" height="30" as="alternateBounds" />
          </mxGeometry>
        </mxCell>
        <mxCell id="aTb8cRAbQJP4SxeHpOCR-32" value="" style="shape=tableRow;horizontal=0;startSize=0;swimlaneHead=0;swimlaneBody=0;fillColor=none;collapsible=0;dropTarget=0;points=[[0,0.5],[1,0.5]];portConstraint=eastwest;top=0;left=0;right=0;bottom=0;" parent="aTb8cRAbQJP4SxeHpOCR-22" vertex="1">
          <mxGeometry y="127" width="240" height="30" as="geometry" />
        </mxCell>
        <mxCell id="aTb8cRAbQJP4SxeHpOCR-33" value="" style="shape=partialRectangle;connectable=0;fillColor=none;top=0;left=0;bottom=0;right=0;editable=1;overflow=hidden;whiteSpace=wrap;html=1;" parent="aTb8cRAbQJP4SxeHpOCR-32" vertex="1">
          <mxGeometry width="37.92307692307702" height="30" as="geometry">
            <mxRectangle width="37.92307692307702" height="30" as="alternateBounds" />
          </mxGeometry>
        </mxCell>
        <mxCell id="aTb8cRAbQJP4SxeHpOCR-34" value="&lt;b&gt;usu_senha_hash&lt;/b&gt;" style="shape=partialRectangle;connectable=0;fillColor=none;top=0;left=0;bottom=0;right=0;align=left;spacingLeft=6;overflow=hidden;whiteSpace=wrap;html=1;" parent="aTb8cRAbQJP4SxeHpOCR-32" vertex="1">
          <mxGeometry x="37.92307692307702" width="202.07692307692298" height="30" as="geometry">
            <mxRectangle width="202.07692307692298" height="30" as="alternateBounds" />
          </mxGeometry>
        </mxCell>
        <mxCell id="aTb8cRAbQJP4SxeHpOCR-35" value="" style="shape=tableRow;horizontal=0;startSize=0;swimlaneHead=0;swimlaneBody=0;fillColor=none;collapsible=0;dropTarget=0;points=[[0,0.5],[1,0.5]];portConstraint=eastwest;top=0;left=0;right=0;bottom=0;" parent="aTb8cRAbQJP4SxeHpOCR-22" vertex="1">
          <mxGeometry y="157" width="240" height="30" as="geometry" />
        </mxCell>
        <mxCell id="aTb8cRAbQJP4SxeHpOCR-36" value="" style="shape=partialRectangle;connectable=0;fillColor=none;top=0;left=0;bottom=0;right=0;editable=1;overflow=hidden;" parent="aTb8cRAbQJP4SxeHpOCR-35" vertex="1">
          <mxGeometry width="37.92307692307702" height="30" as="geometry">
            <mxRectangle width="37.92307692307702" height="30" as="alternateBounds" />
          </mxGeometry>
        </mxCell>
        <mxCell id="aTb8cRAbQJP4SxeHpOCR-37" value="usu_telefone" style="shape=partialRectangle;connectable=0;fillColor=none;top=0;left=0;bottom=0;right=0;align=left;spacingLeft=6;overflow=hidden;fontStyle=1" parent="aTb8cRAbQJP4SxeHpOCR-35" vertex="1">
          <mxGeometry x="37.92307692307702" width="202.07692307692298" height="30" as="geometry">
            <mxRectangle width="202.07692307692298" height="30" as="alternateBounds" />
          </mxGeometry>
        </mxCell>
        <mxCell id="aTb8cRAbQJP4SxeHpOCR-38" value="" style="shape=tableRow;horizontal=0;startSize=0;swimlaneHead=0;swimlaneBody=0;fillColor=none;collapsible=0;dropTarget=0;points=[[0,0.5],[1,0.5]];portConstraint=eastwest;top=0;left=0;right=0;bottom=0;" parent="aTb8cRAbQJP4SxeHpOCR-22" vertex="1">
          <mxGeometry y="187" width="240" height="30" as="geometry" />
        </mxCell>
        <mxCell id="aTb8cRAbQJP4SxeHpOCR-39" value="" style="shape=partialRectangle;connectable=0;fillColor=none;top=0;left=0;bottom=0;right=0;editable=1;overflow=hidden;" parent="aTb8cRAbQJP4SxeHpOCR-38" vertex="1">
          <mxGeometry width="37.92307692307702" height="30" as="geometry">
            <mxRectangle width="37.92307692307702" height="30" as="alternateBounds" />
          </mxGeometry>
        </mxCell>
        <mxCell id="aTb8cRAbQJP4SxeHpOCR-40" value="usu_tipo" style="shape=partialRectangle;connectable=0;fillColor=none;top=0;left=0;bottom=0;right=0;align=left;spacingLeft=6;overflow=hidden;fontStyle=1" parent="aTb8cRAbQJP4SxeHpOCR-38" vertex="1">
          <mxGeometry x="37.92307692307702" width="202.07692307692298" height="30" as="geometry">
            <mxRectangle width="202.07692307692298" height="30" as="alternateBounds" />
          </mxGeometry>
        </mxCell>
        <mxCell id="aTb8cRAbQJP4SxeHpOCR-44" value="" style="shape=tableRow;horizontal=0;startSize=0;swimlaneHead=0;swimlaneBody=0;fillColor=none;collapsible=0;dropTarget=0;points=[[0,0.5],[1,0.5]];portConstraint=eastwest;top=0;left=0;right=0;bottom=0;" parent="aTb8cRAbQJP4SxeHpOCR-22" vertex="1">
          <mxGeometry y="217" width="240" height="30" as="geometry" />
        </mxCell>
        <mxCell id="aTb8cRAbQJP4SxeHpOCR-45" value="" style="shape=partialRectangle;connectable=0;fillColor=none;top=0;left=0;bottom=0;right=0;editable=1;overflow=hidden;" parent="aTb8cRAbQJP4SxeHpOCR-44" vertex="1">
          <mxGeometry width="37.92307692307702" height="30" as="geometry">
            <mxRectangle width="37.92307692307702" height="30" as="alternateBounds" />
          </mxGeometry>
        </mxCell>
        <mxCell id="aTb8cRAbQJP4SxeHpOCR-46" value="usu_status" style="shape=partialRectangle;connectable=0;fillColor=none;top=0;left=0;bottom=0;right=0;align=left;spacingLeft=6;overflow=hidden;fontStyle=1" parent="aTb8cRAbQJP4SxeHpOCR-44" vertex="1">
          <mxGeometry x="37.92307692307702" width="202.07692307692298" height="30" as="geometry">
            <mxRectangle width="202.07692307692298" height="30" as="alternateBounds" />
          </mxGeometry>
        </mxCell>
        <mxCell id="aTb8cRAbQJP4SxeHpOCR-47" value="" style="shape=tableRow;horizontal=0;startSize=0;swimlaneHead=0;swimlaneBody=0;fillColor=none;collapsible=0;dropTarget=0;points=[[0,0.5],[1,0.5]];portConstraint=eastwest;top=0;left=0;right=0;bottom=0;" parent="aTb8cRAbQJP4SxeHpOCR-22" vertex="1">
          <mxGeometry y="247" width="240" height="30" as="geometry" />
        </mxCell>
        <mxCell id="aTb8cRAbQJP4SxeHpOCR-48" value="" style="shape=partialRectangle;connectable=0;fillColor=none;top=0;left=0;bottom=0;right=0;editable=1;overflow=hidden;" parent="aTb8cRAbQJP4SxeHpOCR-47" vertex="1">
          <mxGeometry width="37.92307692307702" height="30" as="geometry">
            <mxRectangle width="37.92307692307702" height="30" as="alternateBounds" />
          </mxGeometry>
        </mxCell>
        <mxCell id="aTb8cRAbQJP4SxeHpOCR-49" value="usu_cadastro" style="shape=partialRectangle;connectable=0;fillColor=none;top=0;left=0;bottom=0;right=0;align=left;spacingLeft=6;overflow=hidden;fontStyle=1" parent="aTb8cRAbQJP4SxeHpOCR-47" vertex="1">
          <mxGeometry x="37.92307692307702" width="202.07692307692298" height="30" as="geometry">
            <mxRectangle width="202.07692307692298" height="30" as="alternateBounds" />
          </mxGeometry>
        </mxCell>
        <mxCell id="yBVMHAFfP1PsOILajYzC-10" value="" style="shape=tableRow;horizontal=0;startSize=0;swimlaneHead=0;swimlaneBody=0;fillColor=none;collapsible=0;dropTarget=0;points=[[0,0.5],[1,0.5]];portConstraint=eastwest;top=0;left=0;right=0;bottom=0;" parent="aTb8cRAbQJP4SxeHpOCR-22" vertex="1">
          <mxGeometry y="277" width="240" height="30" as="geometry" />
        </mxCell>
        <mxCell id="yBVMHAFfP1PsOILajYzC-11" value="" style="shape=partialRectangle;connectable=0;fillColor=none;top=0;left=0;bottom=0;right=0;editable=1;overflow=hidden;" parent="yBVMHAFfP1PsOILajYzC-10" vertex="1">
          <mxGeometry width="37.92307692307702" height="30" as="geometry">
            <mxRectangle width="37.92307692307702" height="30" as="alternateBounds" />
          </mxGeometry>
        </mxCell>
        <mxCell id="yBVMHAFfP1PsOILajYzC-12" value="usu_alterar_Senha" style="shape=partialRectangle;connectable=0;fillColor=none;top=0;left=0;bottom=0;right=0;align=left;spacingLeft=6;overflow=hidden;fontStyle=1" parent="yBVMHAFfP1PsOILajYzC-10" vertex="1">
          <mxGeometry x="37.92307692307702" width="202.07692307692298" height="30" as="geometry">
            <mxRectangle width="202.07692307692298" height="30" as="alternateBounds" />
          </mxGeometry>
        </mxCell>
        <mxCell id="aTb8cRAbQJP4SxeHpOCR-50" value="EMPRESAS" style="shape=table;startSize=30;container=1;collapsible=1;childLayout=tableLayout;fixedRows=1;rowLines=0;fontStyle=1;align=center;resizeLast=1;html=1;strokeColor=#82b366;rounded=1;swimlaneLine=1;shadow=0;fillColor=#d5e8d4;" parent="1" vertex="1">
          <mxGeometry x="1580" y="480" width="240" height="258.1724137931035" as="geometry">
            <mxRectangle x="1350" y="415" width="110" height="30" as="alternateBounds" />
          </mxGeometry>
        </mxCell>
        <mxCell id="yBVMHAFfP1PsOILajYzC-58" value="" style="shape=tableRow;horizontal=0;startSize=0;swimlaneHead=0;swimlaneBody=0;fillColor=none;collapsible=0;dropTarget=0;points=[[0,0.5],[1,0.5]];portConstraint=eastwest;top=0;left=0;right=0;bottom=1;strokeColor=light-dark(#000000,#FFFFFF);" parent="aTb8cRAbQJP4SxeHpOCR-50" vertex="1">
          <mxGeometry y="30" width="240" height="50" as="geometry" />
        </mxCell>
        <mxCell id="yBVMHAFfP1PsOILajYzC-59" value="PK" style="shape=partialRectangle;connectable=0;fillColor=none;top=0;left=0;bottom=0;right=0;fontStyle=1;overflow=hidden;whiteSpace=wrap;html=1;" parent="yBVMHAFfP1PsOILajYzC-58" vertex="1">
          <mxGeometry width="50" height="50" as="geometry">
            <mxRectangle width="50" height="50" as="alternateBounds" />
          </mxGeometry>
        </mxCell>
        <mxCell id="yBVMHAFfP1PsOILajYzC-60" value="&lt;b&gt;&lt;u&gt;emp_id&lt;/u&gt;&lt;/b&gt;" style="shape=partialRectangle;connectable=0;fillColor=none;top=0;left=0;bottom=0;right=0;align=left;spacingLeft=6;fontStyle=0;overflow=hidden;whiteSpace=wrap;html=1;" parent="yBVMHAFfP1PsOILajYzC-58" vertex="1">
          <mxGeometry x="50" width="190" height="50" as="geometry">
            <mxRectangle width="190" height="50" as="alternateBounds" />
          </mxGeometry>
        </mxCell>
        <mxCell id="a0v2P5sfxZpOZyoatviM-1" value="" style="shape=tableRow;horizontal=0;startSize=0;swimlaneHead=0;swimlaneBody=0;fillColor=none;collapsible=0;dropTarget=0;points=[[0,0.5],[1,0.5]];portConstraint=eastwest;top=0;left=0;right=0;bottom=0;" parent="aTb8cRAbQJP4SxeHpOCR-50" vertex="1">
          <mxGeometry y="80" width="240" height="28" as="geometry" />
        </mxCell>
        <mxCell id="a0v2P5sfxZpOZyoatviM-2" value="" style="shape=partialRectangle;connectable=0;fillColor=none;top=0;left=0;bottom=0;right=0;editable=1;overflow=hidden;" parent="a0v2P5sfxZpOZyoatviM-1" vertex="1">
          <mxGeometry width="50" height="28" as="geometry">
            <mxRectangle width="50" height="28" as="alternateBounds" />
          </mxGeometry>
        </mxCell>
        <mxCell id="a0v2P5sfxZpOZyoatviM-3" value="emp_nome_fantasia" style="shape=partialRectangle;connectable=0;fillColor=none;top=0;left=0;bottom=0;right=0;align=left;spacingLeft=6;overflow=hidden;fontStyle=1" parent="a0v2P5sfxZpOZyoatviM-1" vertex="1">
          <mxGeometry x="50" width="190" height="28" as="geometry">
            <mxRectangle width="190" height="28" as="alternateBounds" />
          </mxGeometry>
        </mxCell>
        <mxCell id="aTb8cRAbQJP4SxeHpOCR-54" value="" style="shape=tableRow;horizontal=0;startSize=0;swimlaneHead=0;swimlaneBody=0;fillColor=none;collapsible=0;dropTarget=0;points=[[0,0.5],[1,0.5]];portConstraint=eastwest;top=0;left=0;right=0;bottom=0;strokeColor=inherit;" parent="aTb8cRAbQJP4SxeHpOCR-50" vertex="1">
          <mxGeometry y="108" width="240" height="30" as="geometry" />
        </mxCell>
        <mxCell id="aTb8cRAbQJP4SxeHpOCR-55" value="" style="shape=partialRectangle;connectable=0;fillColor=none;top=0;left=0;bottom=0;right=0;editable=1;overflow=hidden;whiteSpace=wrap;html=1;" parent="aTb8cRAbQJP4SxeHpOCR-54" vertex="1">
          <mxGeometry width="50" height="30" as="geometry">
            <mxRectangle width="50" height="30" as="alternateBounds" />
          </mxGeometry>
        </mxCell>
        <mxCell id="aTb8cRAbQJP4SxeHpOCR-56" value="&lt;b&gt;emp_razao_social&lt;/b&gt;" style="shape=partialRectangle;connectable=0;fillColor=none;top=0;left=0;bottom=0;right=0;align=left;spacingLeft=6;overflow=hidden;whiteSpace=wrap;html=1;shadow=0;strokeColor=light-dark(#000000,#FF6666);" parent="aTb8cRAbQJP4SxeHpOCR-54" vertex="1">
          <mxGeometry x="50" width="190" height="30" as="geometry">
            <mxRectangle width="190" height="30" as="alternateBounds" />
          </mxGeometry>
        </mxCell>
        <mxCell id="aTb8cRAbQJP4SxeHpOCR-57" value="" style="shape=tableRow;horizontal=0;startSize=0;swimlaneHead=0;swimlaneBody=0;fillColor=none;collapsible=0;dropTarget=0;points=[[0,0.5],[1,0.5]];portConstraint=eastwest;top=0;left=0;right=0;bottom=0;" parent="aTb8cRAbQJP4SxeHpOCR-50" vertex="1">
          <mxGeometry y="138" width="240" height="30" as="geometry" />
        </mxCell>
        <mxCell id="aTb8cRAbQJP4SxeHpOCR-58" value="" style="shape=partialRectangle;connectable=0;fillColor=none;top=0;left=0;bottom=0;right=0;editable=1;overflow=hidden;whiteSpace=wrap;html=1;" parent="aTb8cRAbQJP4SxeHpOCR-57" vertex="1">
          <mxGeometry width="50" height="30" as="geometry">
            <mxRectangle width="50" height="30" as="alternateBounds" />
          </mxGeometry>
        </mxCell>
        <mxCell id="aTb8cRAbQJP4SxeHpOCR-59" value="&lt;b&gt;emp_cnpj&lt;/b&gt;" style="shape=partialRectangle;connectable=0;fillColor=none;top=0;left=0;bottom=0;right=0;align=left;spacingLeft=6;overflow=hidden;whiteSpace=wrap;html=1;" parent="aTb8cRAbQJP4SxeHpOCR-57" vertex="1">
          <mxGeometry x="50" width="190" height="30" as="geometry">
            <mxRectangle width="190" height="30" as="alternateBounds" />
          </mxGeometry>
        </mxCell>
        <mxCell id="aTb8cRAbQJP4SxeHpOCR-60" value="" style="shape=tableRow;horizontal=0;startSize=0;swimlaneHead=0;swimlaneBody=0;fillColor=none;collapsible=0;dropTarget=0;points=[[0,0.5],[1,0.5]];portConstraint=eastwest;top=0;left=0;right=0;bottom=0;" parent="aTb8cRAbQJP4SxeHpOCR-50" vertex="1">
          <mxGeometry y="168" width="240" height="30" as="geometry" />
        </mxCell>
        <mxCell id="aTb8cRAbQJP4SxeHpOCR-61" value="" style="shape=partialRectangle;connectable=0;fillColor=none;top=0;left=0;bottom=0;right=0;editable=1;overflow=hidden;whiteSpace=wrap;html=1;" parent="aTb8cRAbQJP4SxeHpOCR-60" vertex="1">
          <mxGeometry width="50" height="30" as="geometry">
            <mxRectangle width="50" height="30" as="alternateBounds" />
          </mxGeometry>
        </mxCell>
        <mxCell id="aTb8cRAbQJP4SxeHpOCR-62" value="&lt;b&gt;emp_endereco&lt;/b&gt;" style="shape=partialRectangle;connectable=0;fillColor=none;top=0;left=0;bottom=0;right=0;align=left;spacingLeft=6;overflow=hidden;whiteSpace=wrap;html=1;" parent="aTb8cRAbQJP4SxeHpOCR-60" vertex="1">
          <mxGeometry x="50" width="190" height="30" as="geometry">
            <mxRectangle width="190" height="30" as="alternateBounds" />
          </mxGeometry>
        </mxCell>
        <mxCell id="aTb8cRAbQJP4SxeHpOCR-63" value="" style="shape=tableRow;horizontal=0;startSize=0;swimlaneHead=0;swimlaneBody=0;fillColor=none;collapsible=0;dropTarget=0;points=[[0,0.5],[1,0.5]];portConstraint=eastwest;top=0;left=0;right=0;bottom=0;" parent="aTb8cRAbQJP4SxeHpOCR-50" vertex="1">
          <mxGeometry y="198" width="240" height="30" as="geometry" />
        </mxCell>
        <mxCell id="aTb8cRAbQJP4SxeHpOCR-64" value="" style="shape=partialRectangle;connectable=0;fillColor=none;top=0;left=0;bottom=0;right=0;editable=1;overflow=hidden;" parent="aTb8cRAbQJP4SxeHpOCR-63" vertex="1">
          <mxGeometry width="50" height="30" as="geometry">
            <mxRectangle width="50" height="30" as="alternateBounds" />
          </mxGeometry>
        </mxCell>
        <mxCell id="aTb8cRAbQJP4SxeHpOCR-65" value="emp_telefone" style="shape=partialRectangle;connectable=0;fillColor=none;top=0;left=0;bottom=0;right=0;align=left;spacingLeft=6;overflow=hidden;fontStyle=1" parent="aTb8cRAbQJP4SxeHpOCR-63" vertex="1">
          <mxGeometry x="50" width="190" height="30" as="geometry">
            <mxRectangle width="190" height="30" as="alternateBounds" />
          </mxGeometry>
        </mxCell>
        <mxCell id="yBVMHAFfP1PsOILajYzC-3" value="" style="shape=tableRow;horizontal=0;startSize=0;swimlaneHead=0;swimlaneBody=0;fillColor=none;collapsible=0;dropTarget=0;points=[[0,0.5],[1,0.5]];portConstraint=eastwest;top=0;left=0;right=0;bottom=0;" parent="aTb8cRAbQJP4SxeHpOCR-50" vertex="1">
          <mxGeometry y="228" width="240" height="30" as="geometry" />
        </mxCell>
        <mxCell id="yBVMHAFfP1PsOILajYzC-4" value="" style="shape=partialRectangle;connectable=0;fillColor=none;top=0;left=0;bottom=0;right=0;editable=1;overflow=hidden;" parent="yBVMHAFfP1PsOILajYzC-3" vertex="1">
          <mxGeometry width="50" height="30" as="geometry">
            <mxRectangle width="50" height="30" as="alternateBounds" />
          </mxGeometry>
        </mxCell>
        <mxCell id="yBVMHAFfP1PsOILajYzC-5" value="emp_tipo" style="shape=partialRectangle;connectable=0;fillColor=none;top=0;left=0;bottom=0;right=0;align=left;spacingLeft=6;overflow=hidden;fontStyle=1" parent="yBVMHAFfP1PsOILajYzC-3" vertex="1">
          <mxGeometry x="50" width="190" height="30" as="geometry">
            <mxRectangle width="190" height="30" as="alternateBounds" />
          </mxGeometry>
        </mxCell>
        <mxCell id="aTb8cRAbQJP4SxeHpOCR-78" value="DOCUMENTOS" style="shape=table;startSize=30;container=1;collapsible=1;childLayout=tableLayout;fixedRows=1;rowLines=0;fontStyle=1;align=center;resizeLast=1;html=1;rounded=1;fillColor=#fff2cc;strokeColor=#d6b656;" parent="1" vertex="1">
          <mxGeometry x="455" y="55" width="240" height="320" as="geometry" />
        </mxCell>
        <mxCell id="aTb8cRAbQJP4SxeHpOCR-79" value="" style="shape=tableRow;horizontal=0;startSize=0;swimlaneHead=0;swimlaneBody=0;fillColor=none;collapsible=0;dropTarget=0;points=[[0,0.5],[1,0.5]];portConstraint=eastwest;top=0;left=0;right=0;bottom=1;" parent="aTb8cRAbQJP4SxeHpOCR-78" vertex="1">
          <mxGeometry y="30" width="240" height="50" as="geometry" />
        </mxCell>
        <mxCell id="aTb8cRAbQJP4SxeHpOCR-80" value="&lt;b&gt;PK&lt;/b&gt;" style="shape=partialRectangle;connectable=0;fillColor=none;top=0;left=0;bottom=0;right=0;fontStyle=1;overflow=hidden;whiteSpace=wrap;html=1;" parent="aTb8cRAbQJP4SxeHpOCR-79" vertex="1">
          <mxGeometry width="30" height="50" as="geometry">
            <mxRectangle width="30" height="50" as="alternateBounds" />
          </mxGeometry>
        </mxCell>
        <mxCell id="aTb8cRAbQJP4SxeHpOCR-81" value="&lt;b&gt;&lt;u&gt;doc_id&lt;/u&gt;&lt;/b&gt;" style="shape=partialRectangle;connectable=0;fillColor=none;top=0;left=0;bottom=0;right=0;align=left;spacingLeft=6;fontStyle=1;overflow=hidden;whiteSpace=wrap;html=1;strokeColor=default;" parent="aTb8cRAbQJP4SxeHpOCR-79" vertex="1">
          <mxGeometry x="30" width="210" height="50" as="geometry">
            <mxRectangle width="210" height="50" as="alternateBounds" />
          </mxGeometry>
        </mxCell>
        <mxCell id="a0v2P5sfxZpOZyoatviM-43" value="" style="shape=tableRow;horizontal=0;startSize=0;swimlaneHead=0;swimlaneBody=0;fillColor=none;collapsible=0;dropTarget=0;points=[[0,0.5],[1,0.5]];portConstraint=eastwest;top=0;left=0;right=0;bottom=0;" parent="aTb8cRAbQJP4SxeHpOCR-78" vertex="1">
          <mxGeometry y="80" width="240" height="30" as="geometry" />
        </mxCell>
        <mxCell id="a0v2P5sfxZpOZyoatviM-44" value="&lt;b&gt;FK&lt;/b&gt;" style="shape=partialRectangle;connectable=0;fillColor=none;top=0;left=0;bottom=0;right=0;fontStyle=0;overflow=hidden;whiteSpace=wrap;html=1;" parent="a0v2P5sfxZpOZyoatviM-43" vertex="1">
          <mxGeometry width="30" height="30" as="geometry">
            <mxRectangle width="30" height="30" as="alternateBounds" />
          </mxGeometry>
        </mxCell>
        <mxCell id="a0v2P5sfxZpOZyoatviM-45" value="&lt;b&gt;id_empresa&lt;/b&gt;" style="shape=partialRectangle;connectable=0;fillColor=none;top=0;left=0;bottom=0;right=0;align=left;spacingLeft=6;fontStyle=0;overflow=hidden;whiteSpace=wrap;html=1;" parent="a0v2P5sfxZpOZyoatviM-43" vertex="1">
          <mxGeometry x="30" width="210" height="30" as="geometry">
            <mxRectangle width="210" height="30" as="alternateBounds" />
          </mxGeometry>
        </mxCell>
        <mxCell id="a0v2P5sfxZpOZyoatviM-46" value="" style="shape=tableRow;horizontal=0;startSize=0;swimlaneHead=0;swimlaneBody=0;fillColor=none;collapsible=0;dropTarget=0;points=[[0,0.5],[1,0.5]];portConstraint=eastwest;top=0;left=0;right=0;bottom=0;" parent="aTb8cRAbQJP4SxeHpOCR-78" vertex="1">
          <mxGeometry y="110" width="240" height="30" as="geometry" />
        </mxCell>
        <mxCell id="a0v2P5sfxZpOZyoatviM-47" value="&lt;b&gt;FK&lt;/b&gt;" style="shape=partialRectangle;connectable=0;fillColor=none;top=0;left=0;bottom=0;right=0;fontStyle=0;overflow=hidden;whiteSpace=wrap;html=1;" parent="a0v2P5sfxZpOZyoatviM-46" vertex="1">
          <mxGeometry width="30" height="30" as="geometry">
            <mxRectangle width="30" height="30" as="alternateBounds" />
          </mxGeometry>
        </mxCell>
        <mxCell id="a0v2P5sfxZpOZyoatviM-48" value="&lt;b&gt;id_usuario&lt;/b&gt;" style="shape=partialRectangle;connectable=0;fillColor=none;top=0;left=0;bottom=0;right=0;align=left;spacingLeft=6;fontStyle=0;overflow=hidden;whiteSpace=wrap;html=1;" parent="a0v2P5sfxZpOZyoatviM-46" vertex="1">
          <mxGeometry x="30" width="210" height="30" as="geometry">
            <mxRectangle width="210" height="30" as="alternateBounds" />
          </mxGeometry>
        </mxCell>
        <mxCell id="aTb8cRAbQJP4SxeHpOCR-82" value="" style="shape=tableRow;horizontal=0;startSize=0;swimlaneHead=0;swimlaneBody=0;fillColor=none;collapsible=0;dropTarget=0;points=[[0,0.5],[1,0.5]];portConstraint=eastwest;top=0;left=0;right=0;bottom=0;" parent="aTb8cRAbQJP4SxeHpOCR-78" vertex="1">
          <mxGeometry y="140" width="240" height="30" as="geometry" />
        </mxCell>
        <mxCell id="aTb8cRAbQJP4SxeHpOCR-83" value="&lt;b&gt;FK&lt;/b&gt;" style="shape=partialRectangle;connectable=0;fillColor=none;top=0;left=0;bottom=0;right=0;editable=1;overflow=hidden;whiteSpace=wrap;html=1;" parent="aTb8cRAbQJP4SxeHpOCR-82" vertex="1">
          <mxGeometry width="30" height="30" as="geometry">
            <mxRectangle width="30" height="30" as="alternateBounds" />
          </mxGeometry>
        </mxCell>
        <mxCell id="aTb8cRAbQJP4SxeHpOCR-84" value="&lt;b&gt;tpd_id&lt;/b&gt;" style="shape=partialRectangle;connectable=0;fillColor=none;top=0;left=0;bottom=0;right=0;align=left;spacingLeft=6;overflow=hidden;whiteSpace=wrap;html=1;strokeColor=inherit;" parent="aTb8cRAbQJP4SxeHpOCR-82" vertex="1">
          <mxGeometry x="30" width="210" height="30" as="geometry">
            <mxRectangle width="210" height="30" as="alternateBounds" />
          </mxGeometry>
        </mxCell>
        <mxCell id="aTb8cRAbQJP4SxeHpOCR-88" value="" style="shape=tableRow;horizontal=0;startSize=0;swimlaneHead=0;swimlaneBody=0;fillColor=none;collapsible=0;dropTarget=0;points=[[0,0.5],[1,0.5]];portConstraint=eastwest;top=0;left=0;right=0;bottom=0;" parent="aTb8cRAbQJP4SxeHpOCR-78" vertex="1">
          <mxGeometry y="170" width="240" height="30" as="geometry" />
        </mxCell>
        <mxCell id="aTb8cRAbQJP4SxeHpOCR-89" value="" style="shape=partialRectangle;connectable=0;fillColor=none;top=0;left=0;bottom=0;right=0;editable=1;overflow=hidden;whiteSpace=wrap;html=1;" parent="aTb8cRAbQJP4SxeHpOCR-88" vertex="1">
          <mxGeometry width="30" height="30" as="geometry">
            <mxRectangle width="30" height="30" as="alternateBounds" />
          </mxGeometry>
        </mxCell>
        <mxCell id="aTb8cRAbQJP4SxeHpOCR-90" value="&lt;b&gt;doc_arquivo_nome&lt;/b&gt;" style="shape=partialRectangle;connectable=0;fillColor=none;top=0;left=0;bottom=0;right=0;align=left;spacingLeft=6;overflow=hidden;whiteSpace=wrap;html=1;" parent="aTb8cRAbQJP4SxeHpOCR-88" vertex="1">
          <mxGeometry x="30" width="210" height="30" as="geometry">
            <mxRectangle width="210" height="30" as="alternateBounds" />
          </mxGeometry>
        </mxCell>
        <mxCell id="aTb8cRAbQJP4SxeHpOCR-97" value="" style="shape=tableRow;horizontal=0;startSize=0;swimlaneHead=0;swimlaneBody=0;fillColor=none;collapsible=0;dropTarget=0;points=[[0,0.5],[1,0.5]];portConstraint=eastwest;top=0;left=0;right=0;bottom=0;" parent="aTb8cRAbQJP4SxeHpOCR-78" vertex="1">
          <mxGeometry y="200" width="240" height="30" as="geometry" />
        </mxCell>
        <mxCell id="aTb8cRAbQJP4SxeHpOCR-98" value="" style="shape=partialRectangle;connectable=0;fillColor=none;top=0;left=0;bottom=0;right=0;editable=1;overflow=hidden;" parent="aTb8cRAbQJP4SxeHpOCR-97" vertex="1">
          <mxGeometry width="30" height="30" as="geometry">
            <mxRectangle width="30" height="30" as="alternateBounds" />
          </mxGeometry>
        </mxCell>
        <mxCell id="aTb8cRAbQJP4SxeHpOCR-99" value="doc_status" style="shape=partialRectangle;connectable=0;fillColor=none;top=0;left=0;bottom=0;right=0;align=left;spacingLeft=6;overflow=hidden;fontStyle=1" parent="aTb8cRAbQJP4SxeHpOCR-97" vertex="1">
          <mxGeometry x="30" width="210" height="30" as="geometry">
            <mxRectangle width="210" height="30" as="alternateBounds" />
          </mxGeometry>
        </mxCell>
        <mxCell id="aTb8cRAbQJP4SxeHpOCR-100" value="" style="shape=tableRow;horizontal=0;startSize=0;swimlaneHead=0;swimlaneBody=0;fillColor=none;collapsible=0;dropTarget=0;points=[[0,0.5],[1,0.5]];portConstraint=eastwest;top=0;left=0;right=0;bottom=0;" parent="aTb8cRAbQJP4SxeHpOCR-78" vertex="1">
          <mxGeometry y="230" width="240" height="30" as="geometry" />
        </mxCell>
        <mxCell id="aTb8cRAbQJP4SxeHpOCR-101" value="" style="shape=partialRectangle;connectable=0;fillColor=none;top=0;left=0;bottom=0;right=0;editable=1;overflow=hidden;" parent="aTb8cRAbQJP4SxeHpOCR-100" vertex="1">
          <mxGeometry width="30" height="30" as="geometry">
            <mxRectangle width="30" height="30" as="alternateBounds" />
          </mxGeometry>
        </mxCell>
        <mxCell id="aTb8cRAbQJP4SxeHpOCR-102" value="doc_data_upload" style="shape=partialRectangle;connectable=0;fillColor=none;top=0;left=0;bottom=0;right=0;align=left;spacingLeft=6;overflow=hidden;fontStyle=1" parent="aTb8cRAbQJP4SxeHpOCR-100" vertex="1">
          <mxGeometry x="30" width="210" height="30" as="geometry">
            <mxRectangle width="210" height="30" as="alternateBounds" />
          </mxGeometry>
        </mxCell>
        <mxCell id="cw3llOZ8dIu5f_lHZDkx-1" value="" style="shape=tableRow;horizontal=0;startSize=0;swimlaneHead=0;swimlaneBody=0;fillColor=none;collapsible=0;dropTarget=0;points=[[0,0.5],[1,0.5]];portConstraint=eastwest;top=0;left=0;right=0;bottom=0;" parent="aTb8cRAbQJP4SxeHpOCR-78" vertex="1">
          <mxGeometry y="260" width="240" height="30" as="geometry" />
        </mxCell>
        <mxCell id="cw3llOZ8dIu5f_lHZDkx-2" value="" style="shape=partialRectangle;connectable=0;fillColor=none;top=0;left=0;bottom=0;right=0;editable=1;overflow=hidden;" parent="cw3llOZ8dIu5f_lHZDkx-1" vertex="1">
          <mxGeometry width="30" height="30" as="geometry">
            <mxRectangle width="30" height="30" as="alternateBounds" />
          </mxGeometry>
        </mxCell>
        <mxCell id="cw3llOZ8dIu5f_lHZDkx-3" value="doc_data_emissao" style="shape=partialRectangle;connectable=0;fillColor=none;top=0;left=0;bottom=0;right=0;align=left;spacingLeft=6;overflow=hidden;fontStyle=1" parent="cw3llOZ8dIu5f_lHZDkx-1" vertex="1">
          <mxGeometry x="30" width="210" height="30" as="geometry">
            <mxRectangle width="210" height="30" as="alternateBounds" />
          </mxGeometry>
        </mxCell>
        <mxCell id="cw3llOZ8dIu5f_lHZDkx-4" value="" style="shape=tableRow;horizontal=0;startSize=0;swimlaneHead=0;swimlaneBody=0;fillColor=none;collapsible=0;dropTarget=0;points=[[0,0.5],[1,0.5]];portConstraint=eastwest;top=0;left=0;right=0;bottom=0;" parent="aTb8cRAbQJP4SxeHpOCR-78" vertex="1">
          <mxGeometry y="290" width="240" height="30" as="geometry" />
        </mxCell>
        <mxCell id="cw3llOZ8dIu5f_lHZDkx-5" value="" style="shape=partialRectangle;connectable=0;fillColor=none;top=0;left=0;bottom=0;right=0;editable=1;overflow=hidden;" parent="cw3llOZ8dIu5f_lHZDkx-4" vertex="1">
          <mxGeometry width="30" height="30" as="geometry">
            <mxRectangle width="30" height="30" as="alternateBounds" />
          </mxGeometry>
        </mxCell>
        <mxCell id="cw3llOZ8dIu5f_lHZDkx-6" value="doc_valor" style="shape=partialRectangle;connectable=0;fillColor=none;top=0;left=0;bottom=0;right=0;align=left;spacingLeft=6;overflow=hidden;fontStyle=1" parent="cw3llOZ8dIu5f_lHZDkx-4" vertex="1">
          <mxGeometry x="30" width="210" height="30" as="geometry">
            <mxRectangle width="210" height="30" as="alternateBounds" />
          </mxGeometry>
        </mxCell>
        <mxCell id="aTb8cRAbQJP4SxeHpOCR-141" value="SUPORTE" style="shape=table;startSize=30;container=1;collapsible=1;childLayout=tableLayout;fixedRows=1;rowLines=0;fontStyle=1;align=center;resizeLast=1;html=1;rounded=1;fillColor=#d5e8d4;strokeColor=#82b366;" parent="1" vertex="1">
          <mxGeometry x="1134" y="796" width="240" height="300" as="geometry" />
        </mxCell>
        <mxCell id="aTb8cRAbQJP4SxeHpOCR-142" value="" style="shape=tableRow;horizontal=0;startSize=0;swimlaneHead=0;swimlaneBody=0;fillColor=none;collapsible=0;dropTarget=0;points=[[0,0.5],[1,0.5]];portConstraint=eastwest;top=0;left=0;right=0;bottom=1;" parent="aTb8cRAbQJP4SxeHpOCR-141" vertex="1">
          <mxGeometry y="30" width="240" height="30" as="geometry" />
        </mxCell>
        <mxCell id="aTb8cRAbQJP4SxeHpOCR-143" value="PK" style="shape=partialRectangle;connectable=0;fillColor=none;top=0;left=0;bottom=0;right=0;fontStyle=1;overflow=hidden;whiteSpace=wrap;html=1;" parent="aTb8cRAbQJP4SxeHpOCR-142" vertex="1">
          <mxGeometry width="30" height="30" as="geometry">
            <mxRectangle width="30" height="30" as="alternateBounds" />
          </mxGeometry>
        </mxCell>
        <mxCell id="aTb8cRAbQJP4SxeHpOCR-144" value="&lt;u&gt;sup_id&lt;/u&gt;" style="shape=partialRectangle;connectable=0;fillColor=none;top=0;left=0;bottom=0;right=0;align=left;spacingLeft=6;fontStyle=1;overflow=hidden;whiteSpace=wrap;html=1;" parent="aTb8cRAbQJP4SxeHpOCR-142" vertex="1">
          <mxGeometry x="30" width="210" height="30" as="geometry">
            <mxRectangle width="210" height="30" as="alternateBounds" />
          </mxGeometry>
        </mxCell>
        <mxCell id="E9BGw7JvG6-Icw3DdG-G-40" value="" style="shape=tableRow;horizontal=0;startSize=0;swimlaneHead=0;swimlaneBody=0;fillColor=none;collapsible=0;dropTarget=0;points=[[0,0.5],[1,0.5]];portConstraint=eastwest;top=0;left=0;right=0;bottom=0;" parent="aTb8cRAbQJP4SxeHpOCR-141" vertex="1">
          <mxGeometry y="60" width="240" height="30" as="geometry" />
        </mxCell>
        <mxCell id="E9BGw7JvG6-Icw3DdG-G-41" value="FK" style="shape=partialRectangle;connectable=0;fillColor=none;top=0;left=0;bottom=0;right=0;fontStyle=1;overflow=hidden;whiteSpace=wrap;html=1;" parent="E9BGw7JvG6-Icw3DdG-G-40" vertex="1">
          <mxGeometry width="30" height="30" as="geometry">
            <mxRectangle width="30" height="30" as="alternateBounds" />
          </mxGeometry>
        </mxCell>
        <mxCell id="E9BGw7JvG6-Icw3DdG-G-42" value="&lt;b&gt;usu_id_solicitante&lt;/b&gt;" style="shape=partialRectangle;connectable=0;fillColor=none;top=0;left=0;bottom=0;right=0;align=left;spacingLeft=6;fontStyle=0;overflow=hidden;whiteSpace=wrap;html=1;" parent="E9BGw7JvG6-Icw3DdG-G-40" vertex="1">
          <mxGeometry x="30" width="210" height="30" as="geometry">
            <mxRectangle width="210" height="30" as="alternateBounds" />
          </mxGeometry>
        </mxCell>
        <mxCell id="E9BGw7JvG6-Icw3DdG-G-43" value="" style="shape=tableRow;horizontal=0;startSize=0;swimlaneHead=0;swimlaneBody=0;fillColor=none;collapsible=0;dropTarget=0;points=[[0,0.5],[1,0.5]];portConstraint=eastwest;top=0;left=0;right=0;bottom=0;" parent="aTb8cRAbQJP4SxeHpOCR-141" vertex="1">
          <mxGeometry y="90" width="240" height="30" as="geometry" />
        </mxCell>
        <mxCell id="E9BGw7JvG6-Icw3DdG-G-44" value="FK" style="shape=partialRectangle;connectable=0;fillColor=none;top=0;left=0;bottom=0;right=0;fontStyle=1;overflow=hidden;whiteSpace=wrap;html=1;" parent="E9BGw7JvG6-Icw3DdG-G-43" vertex="1">
          <mxGeometry width="30" height="30" as="geometry">
            <mxRectangle width="30" height="30" as="alternateBounds" />
          </mxGeometry>
        </mxCell>
        <mxCell id="E9BGw7JvG6-Icw3DdG-G-45" value="&lt;b&gt;usu_id_responsavel&lt;/b&gt;" style="shape=partialRectangle;connectable=0;fillColor=none;top=0;left=0;bottom=0;right=0;align=left;spacingLeft=6;fontStyle=0;overflow=hidden;whiteSpace=wrap;html=1;" parent="E9BGw7JvG6-Icw3DdG-G-43" vertex="1">
          <mxGeometry x="30" width="210" height="30" as="geometry">
            <mxRectangle width="210" height="30" as="alternateBounds" />
          </mxGeometry>
        </mxCell>
        <mxCell id="aTb8cRAbQJP4SxeHpOCR-145" value="" style="shape=tableRow;horizontal=0;startSize=0;swimlaneHead=0;swimlaneBody=0;fillColor=none;collapsible=0;dropTarget=0;points=[[0,0.5],[1,0.5]];portConstraint=eastwest;top=0;left=0;right=0;bottom=0;" parent="aTb8cRAbQJP4SxeHpOCR-141" vertex="1">
          <mxGeometry y="120" width="240" height="30" as="geometry" />
        </mxCell>
        <mxCell id="aTb8cRAbQJP4SxeHpOCR-146" value="" style="shape=partialRectangle;connectable=0;fillColor=none;top=0;left=0;bottom=0;right=0;editable=1;overflow=hidden;whiteSpace=wrap;html=1;" parent="aTb8cRAbQJP4SxeHpOCR-145" vertex="1">
          <mxGeometry width="30" height="30" as="geometry">
            <mxRectangle width="30" height="30" as="alternateBounds" />
          </mxGeometry>
        </mxCell>
        <mxCell id="aTb8cRAbQJP4SxeHpOCR-147" value="&lt;b&gt;sup_assunto&lt;/b&gt;" style="shape=partialRectangle;connectable=0;fillColor=none;top=0;left=0;bottom=0;right=0;align=left;spacingLeft=6;overflow=hidden;whiteSpace=wrap;html=1;" parent="aTb8cRAbQJP4SxeHpOCR-145" vertex="1">
          <mxGeometry x="30" width="210" height="30" as="geometry">
            <mxRectangle width="210" height="30" as="alternateBounds" />
          </mxGeometry>
        </mxCell>
        <mxCell id="aTb8cRAbQJP4SxeHpOCR-148" value="" style="shape=tableRow;horizontal=0;startSize=0;swimlaneHead=0;swimlaneBody=0;fillColor=none;collapsible=0;dropTarget=0;points=[[0,0.5],[1,0.5]];portConstraint=eastwest;top=0;left=0;right=0;bottom=0;" parent="aTb8cRAbQJP4SxeHpOCR-141" vertex="1">
          <mxGeometry y="150" width="240" height="30" as="geometry" />
        </mxCell>
        <mxCell id="aTb8cRAbQJP4SxeHpOCR-149" value="" style="shape=partialRectangle;connectable=0;fillColor=none;top=0;left=0;bottom=0;right=0;editable=1;overflow=hidden;whiteSpace=wrap;html=1;" parent="aTb8cRAbQJP4SxeHpOCR-148" vertex="1">
          <mxGeometry width="30" height="30" as="geometry">
            <mxRectangle width="30" height="30" as="alternateBounds" />
          </mxGeometry>
        </mxCell>
        <mxCell id="aTb8cRAbQJP4SxeHpOCR-150" value="&lt;b&gt;sup_descricao&lt;/b&gt;" style="shape=partialRectangle;connectable=0;fillColor=none;top=0;left=0;bottom=0;right=0;align=left;spacingLeft=6;overflow=hidden;whiteSpace=wrap;html=1;" parent="aTb8cRAbQJP4SxeHpOCR-148" vertex="1">
          <mxGeometry x="30" width="210" height="30" as="geometry">
            <mxRectangle width="210" height="30" as="alternateBounds" />
          </mxGeometry>
        </mxCell>
        <mxCell id="aTb8cRAbQJP4SxeHpOCR-166" value="" style="shape=tableRow;horizontal=0;startSize=0;swimlaneHead=0;swimlaneBody=0;fillColor=none;collapsible=0;dropTarget=0;points=[[0,0.5],[1,0.5]];portConstraint=eastwest;top=0;left=0;right=0;bottom=0;" parent="aTb8cRAbQJP4SxeHpOCR-141" vertex="1">
          <mxGeometry y="180" width="240" height="30" as="geometry" />
        </mxCell>
        <mxCell id="aTb8cRAbQJP4SxeHpOCR-167" value="" style="shape=partialRectangle;connectable=0;fillColor=none;top=0;left=0;bottom=0;right=0;editable=1;overflow=hidden;" parent="aTb8cRAbQJP4SxeHpOCR-166" vertex="1">
          <mxGeometry width="30" height="30" as="geometry">
            <mxRectangle width="30" height="30" as="alternateBounds" />
          </mxGeometry>
        </mxCell>
        <mxCell id="aTb8cRAbQJP4SxeHpOCR-168" value="sup_status" style="shape=partialRectangle;connectable=0;fillColor=none;top=0;left=0;bottom=0;right=0;align=left;spacingLeft=6;overflow=hidden;fontStyle=1" parent="aTb8cRAbQJP4SxeHpOCR-166" vertex="1">
          <mxGeometry x="30" width="210" height="30" as="geometry">
            <mxRectangle width="210" height="30" as="alternateBounds" />
          </mxGeometry>
        </mxCell>
        <mxCell id="aTb8cRAbQJP4SxeHpOCR-172" value="" style="shape=tableRow;horizontal=0;startSize=0;swimlaneHead=0;swimlaneBody=0;fillColor=none;collapsible=0;dropTarget=0;points=[[0,0.5],[1,0.5]];portConstraint=eastwest;top=0;left=0;right=0;bottom=0;" parent="aTb8cRAbQJP4SxeHpOCR-141" vertex="1">
          <mxGeometry y="210" width="240" height="30" as="geometry" />
        </mxCell>
        <mxCell id="aTb8cRAbQJP4SxeHpOCR-173" value="" style="shape=partialRectangle;connectable=0;fillColor=none;top=0;left=0;bottom=0;right=0;editable=1;overflow=hidden;" parent="aTb8cRAbQJP4SxeHpOCR-172" vertex="1">
          <mxGeometry width="30" height="30" as="geometry">
            <mxRectangle width="30" height="30" as="alternateBounds" />
          </mxGeometry>
        </mxCell>
        <mxCell id="aTb8cRAbQJP4SxeHpOCR-174" value="sup_data_abertura" style="shape=partialRectangle;connectable=0;fillColor=none;top=0;left=0;bottom=0;right=0;align=left;spacingLeft=6;overflow=hidden;fontStyle=1" parent="aTb8cRAbQJP4SxeHpOCR-172" vertex="1">
          <mxGeometry x="30" width="210" height="30" as="geometry">
            <mxRectangle width="210" height="30" as="alternateBounds" />
          </mxGeometry>
        </mxCell>
        <mxCell id="aTb8cRAbQJP4SxeHpOCR-210" value="" style="shape=tableRow;horizontal=0;startSize=0;swimlaneHead=0;swimlaneBody=0;fillColor=none;collapsible=0;dropTarget=0;points=[[0,0.5],[1,0.5]];portConstraint=eastwest;top=0;left=0;right=0;bottom=0;" parent="aTb8cRAbQJP4SxeHpOCR-141" vertex="1">
          <mxGeometry y="240" width="240" height="30" as="geometry" />
        </mxCell>
        <mxCell id="aTb8cRAbQJP4SxeHpOCR-211" value="" style="shape=partialRectangle;connectable=0;fillColor=none;top=0;left=0;bottom=0;right=0;editable=1;overflow=hidden;" parent="aTb8cRAbQJP4SxeHpOCR-210" vertex="1">
          <mxGeometry width="30" height="30" as="geometry">
            <mxRectangle width="30" height="30" as="alternateBounds" />
          </mxGeometry>
        </mxCell>
        <mxCell id="aTb8cRAbQJP4SxeHpOCR-212" value="sup_data_suporte" style="shape=partialRectangle;connectable=0;fillColor=none;top=0;left=0;bottom=0;right=0;align=left;spacingLeft=6;overflow=hidden;fontStyle=1" parent="aTb8cRAbQJP4SxeHpOCR-210" vertex="1">
          <mxGeometry x="30" width="210" height="30" as="geometry">
            <mxRectangle width="210" height="30" as="alternateBounds" />
          </mxGeometry>
        </mxCell>
        <mxCell id="cw3llOZ8dIu5f_lHZDkx-7" value="" style="shape=tableRow;horizontal=0;startSize=0;swimlaneHead=0;swimlaneBody=0;fillColor=none;collapsible=0;dropTarget=0;points=[[0,0.5],[1,0.5]];portConstraint=eastwest;top=0;left=0;right=0;bottom=0;" parent="aTb8cRAbQJP4SxeHpOCR-141" vertex="1">
          <mxGeometry y="270" width="240" height="30" as="geometry" />
        </mxCell>
        <mxCell id="cw3llOZ8dIu5f_lHZDkx-8" value="FK" style="shape=partialRectangle;connectable=0;fillColor=none;top=0;left=0;bottom=0;right=0;fontStyle=0;overflow=hidden;whiteSpace=wrap;html=1;" parent="cw3llOZ8dIu5f_lHZDkx-7" vertex="1">
          <mxGeometry width="30" height="30" as="geometry">
            <mxRectangle width="30" height="30" as="alternateBounds" />
          </mxGeometry>
        </mxCell>
        <mxCell id="cw3llOZ8dIu5f_lHZDkx-9" value="sup_id_resp" style="shape=partialRectangle;connectable=0;fillColor=none;top=0;left=0;bottom=0;right=0;align=left;spacingLeft=6;fontStyle=0;overflow=hidden;whiteSpace=wrap;html=1;" parent="cw3llOZ8dIu5f_lHZDkx-7" vertex="1">
          <mxGeometry x="30" width="210" height="30" as="geometry">
            <mxRectangle width="210" height="30" as="alternateBounds" />
          </mxGeometry>
        </mxCell>
        <mxCell id="cw3llOZ8dIu5f_lHZDkx-10" value="" style="endArrow=ERone;html=1;rounded=0;strokeWidth=2;startArrow=ERmany;startFill=0;endFill=0;exitX=1;exitY=0.5;exitDx=0;exitDy=0;edgeStyle=orthogonalEdgeStyle;entryX=1;entryY=0.5;entryDx=0;entryDy=0;startSize=10;endSize=10;" parent="aTb8cRAbQJP4SxeHpOCR-141" source="cw3llOZ8dIu5f_lHZDkx-7" target="aTb8cRAbQJP4SxeHpOCR-142" edge="1">
          <mxGeometry relative="1" as="geometry">
            <mxPoint x="253" y="807" as="sourcePoint" />
            <mxPoint x="-97" y="302" as="targetPoint" />
            <Array as="points">
              <mxPoint x="279" y="285" />
              <mxPoint x="279" y="45" />
            </Array>
          </mxGeometry>
        </mxCell>
        <mxCell id="aTb8cRAbQJP4SxeHpOCR-175" value="AUDITORIA" style="shape=table;startSize=30;container=1;collapsible=1;childLayout=tableLayout;fixedRows=1;rowLines=0;fontStyle=1;align=center;resizeLast=1;html=1;rounded=1;fillColor=#d5e8d4;strokeColor=#82b366;" parent="1" vertex="1">
          <mxGeometry x="460" y="1180" width="240" height="210" as="geometry" />
        </mxCell>
        <mxCell id="aTb8cRAbQJP4SxeHpOCR-176" value="" style="shape=tableRow;horizontal=0;startSize=0;swimlaneHead=0;swimlaneBody=0;fillColor=none;collapsible=0;dropTarget=0;points=[[0,0.5],[1,0.5]];portConstraint=eastwest;top=0;left=0;right=0;bottom=1;" parent="aTb8cRAbQJP4SxeHpOCR-175" vertex="1">
          <mxGeometry y="30" width="240" height="30" as="geometry" />
        </mxCell>
        <mxCell id="aTb8cRAbQJP4SxeHpOCR-177" value="PK" style="shape=partialRectangle;connectable=0;fillColor=none;top=0;left=0;bottom=0;right=0;fontStyle=1;overflow=hidden;whiteSpace=wrap;html=1;" parent="aTb8cRAbQJP4SxeHpOCR-176" vertex="1">
          <mxGeometry width="30" height="30" as="geometry">
            <mxRectangle width="30" height="30" as="alternateBounds" />
          </mxGeometry>
        </mxCell>
        <mxCell id="aTb8cRAbQJP4SxeHpOCR-178" value="&lt;b&gt;&lt;u&gt;aud_id&lt;/u&gt;&lt;/b&gt;" style="shape=partialRectangle;connectable=0;fillColor=none;top=0;left=0;bottom=0;right=0;align=left;spacingLeft=6;fontStyle=0;overflow=hidden;whiteSpace=wrap;html=1;" parent="aTb8cRAbQJP4SxeHpOCR-176" vertex="1">
          <mxGeometry x="30" width="210" height="30" as="geometry">
            <mxRectangle width="210" height="30" as="alternateBounds" />
          </mxGeometry>
        </mxCell>
        <mxCell id="E9BGw7JvG6-Icw3DdG-G-59" value="" style="shape=tableRow;horizontal=0;startSize=0;swimlaneHead=0;swimlaneBody=0;fillColor=none;collapsible=0;dropTarget=0;points=[[0,0.5],[1,0.5]];portConstraint=eastwest;top=0;left=0;right=0;bottom=0;" parent="aTb8cRAbQJP4SxeHpOCR-175" vertex="1">
          <mxGeometry y="60" width="240" height="30" as="geometry" />
        </mxCell>
        <mxCell id="E9BGw7JvG6-Icw3DdG-G-60" value="&lt;b&gt;FK&lt;/b&gt;" style="shape=partialRectangle;connectable=0;fillColor=none;top=0;left=0;bottom=0;right=0;fontStyle=0;overflow=hidden;whiteSpace=wrap;html=1;" parent="E9BGw7JvG6-Icw3DdG-G-59" vertex="1">
          <mxGeometry width="30" height="30" as="geometry">
            <mxRectangle width="30" height="30" as="alternateBounds" />
          </mxGeometry>
        </mxCell>
        <mxCell id="E9BGw7JvG6-Icw3DdG-G-61" value="&lt;b&gt;usu_id&lt;/b&gt;" style="shape=partialRectangle;connectable=0;fillColor=none;top=0;left=0;bottom=0;right=0;align=left;spacingLeft=6;fontStyle=0;overflow=hidden;whiteSpace=wrap;html=1;" parent="E9BGw7JvG6-Icw3DdG-G-59" vertex="1">
          <mxGeometry x="30" width="210" height="30" as="geometry">
            <mxRectangle width="210" height="30" as="alternateBounds" />
          </mxGeometry>
        </mxCell>
        <mxCell id="aTb8cRAbQJP4SxeHpOCR-179" value="" style="shape=tableRow;horizontal=0;startSize=0;swimlaneHead=0;swimlaneBody=0;fillColor=none;collapsible=0;dropTarget=0;points=[[0,0.5],[1,0.5]];portConstraint=eastwest;top=0;left=0;right=0;bottom=0;" parent="aTb8cRAbQJP4SxeHpOCR-175" vertex="1">
          <mxGeometry y="90" width="240" height="30" as="geometry" />
        </mxCell>
        <mxCell id="aTb8cRAbQJP4SxeHpOCR-180" value="" style="shape=partialRectangle;connectable=0;fillColor=none;top=0;left=0;bottom=0;right=0;editable=1;overflow=hidden;whiteSpace=wrap;html=1;" parent="aTb8cRAbQJP4SxeHpOCR-179" vertex="1">
          <mxGeometry width="30" height="30" as="geometry">
            <mxRectangle width="30" height="30" as="alternateBounds" />
          </mxGeometry>
        </mxCell>
        <mxCell id="aTb8cRAbQJP4SxeHpOCR-181" value="&lt;b&gt;aud_acao&lt;/b&gt;" style="shape=partialRectangle;connectable=0;fillColor=none;top=0;left=0;bottom=0;right=0;align=left;spacingLeft=6;overflow=hidden;whiteSpace=wrap;html=1;" parent="aTb8cRAbQJP4SxeHpOCR-179" vertex="1">
          <mxGeometry x="30" width="210" height="30" as="geometry">
            <mxRectangle width="210" height="30" as="alternateBounds" />
          </mxGeometry>
        </mxCell>
        <mxCell id="aTb8cRAbQJP4SxeHpOCR-182" value="" style="shape=tableRow;horizontal=0;startSize=0;swimlaneHead=0;swimlaneBody=0;fillColor=none;collapsible=0;dropTarget=0;points=[[0,0.5],[1,0.5]];portConstraint=eastwest;top=0;left=0;right=0;bottom=0;" parent="aTb8cRAbQJP4SxeHpOCR-175" vertex="1">
          <mxGeometry y="120" width="240" height="30" as="geometry" />
        </mxCell>
        <mxCell id="aTb8cRAbQJP4SxeHpOCR-183" value="" style="shape=partialRectangle;connectable=0;fillColor=none;top=0;left=0;bottom=0;right=0;editable=1;overflow=hidden;whiteSpace=wrap;html=1;" parent="aTb8cRAbQJP4SxeHpOCR-182" vertex="1">
          <mxGeometry width="30" height="30" as="geometry">
            <mxRectangle width="30" height="30" as="alternateBounds" />
          </mxGeometry>
        </mxCell>
        <mxCell id="aTb8cRAbQJP4SxeHpOCR-184" value="&lt;b&gt;aud_tabela_afetada&lt;/b&gt;" style="shape=partialRectangle;connectable=0;fillColor=none;top=0;left=0;bottom=0;right=0;align=left;spacingLeft=6;overflow=hidden;whiteSpace=wrap;html=1;" parent="aTb8cRAbQJP4SxeHpOCR-182" vertex="1">
          <mxGeometry x="30" width="210" height="30" as="geometry">
            <mxRectangle width="210" height="30" as="alternateBounds" />
          </mxGeometry>
        </mxCell>
        <mxCell id="aTb8cRAbQJP4SxeHpOCR-191" value="" style="shape=tableRow;horizontal=0;startSize=0;swimlaneHead=0;swimlaneBody=0;fillColor=none;collapsible=0;dropTarget=0;points=[[0,0.5],[1,0.5]];portConstraint=eastwest;top=0;left=0;right=0;bottom=0;" parent="aTb8cRAbQJP4SxeHpOCR-175" vertex="1">
          <mxGeometry y="150" width="240" height="30" as="geometry" />
        </mxCell>
        <mxCell id="aTb8cRAbQJP4SxeHpOCR-192" value="" style="shape=partialRectangle;connectable=0;fillColor=none;top=0;left=0;bottom=0;right=0;editable=1;overflow=hidden;" parent="aTb8cRAbQJP4SxeHpOCR-191" vertex="1">
          <mxGeometry width="30" height="30" as="geometry">
            <mxRectangle width="30" height="30" as="alternateBounds" />
          </mxGeometry>
        </mxCell>
        <mxCell id="aTb8cRAbQJP4SxeHpOCR-193" value="aud_registro_afetado" style="shape=partialRectangle;connectable=0;fillColor=none;top=0;left=0;bottom=0;right=0;align=left;spacingLeft=6;overflow=hidden;fontStyle=1" parent="aTb8cRAbQJP4SxeHpOCR-191" vertex="1">
          <mxGeometry x="30" width="210" height="30" as="geometry">
            <mxRectangle width="210" height="30" as="alternateBounds" />
          </mxGeometry>
        </mxCell>
        <mxCell id="aTb8cRAbQJP4SxeHpOCR-185" value="" style="shape=tableRow;horizontal=0;startSize=0;swimlaneHead=0;swimlaneBody=0;fillColor=none;collapsible=0;dropTarget=0;points=[[0,0.5],[1,0.5]];portConstraint=eastwest;top=0;left=0;right=0;bottom=0;" parent="aTb8cRAbQJP4SxeHpOCR-175" vertex="1">
          <mxGeometry y="180" width="240" height="30" as="geometry" />
        </mxCell>
        <mxCell id="aTb8cRAbQJP4SxeHpOCR-186" value="" style="shape=partialRectangle;connectable=0;fillColor=none;top=0;left=0;bottom=0;right=0;editable=1;overflow=hidden;whiteSpace=wrap;html=1;" parent="aTb8cRAbQJP4SxeHpOCR-185" vertex="1">
          <mxGeometry width="30" height="30" as="geometry">
            <mxRectangle width="30" height="30" as="alternateBounds" />
          </mxGeometry>
        </mxCell>
        <mxCell id="aTb8cRAbQJP4SxeHpOCR-187" value="&lt;b&gt;aud_data_acao&lt;/b&gt;" style="shape=partialRectangle;connectable=0;fillColor=none;top=0;left=0;bottom=0;right=0;align=left;spacingLeft=6;overflow=hidden;whiteSpace=wrap;html=1;" parent="aTb8cRAbQJP4SxeHpOCR-185" vertex="1">
          <mxGeometry x="30" width="210" height="30" as="geometry">
            <mxRectangle width="210" height="30" as="alternateBounds" />
          </mxGeometry>
        </mxCell>
        <mxCell id="yBVMHAFfP1PsOILajYzC-30" value="REGIME" style="shape=table;startSize=30;container=1;collapsible=1;childLayout=tableLayout;fixedRows=1;rowLines=0;fontStyle=1;align=center;resizeLast=1;html=1;rounded=1;fillColor=#d5e8d4;strokeColor=#82b366;" parent="1" vertex="1">
          <mxGeometry x="862" y="456" width="240" height="220.54838709677415" as="geometry" />
        </mxCell>
        <mxCell id="yBVMHAFfP1PsOILajYzC-31" value="" style="shape=tableRow;horizontal=0;startSize=0;swimlaneHead=0;swimlaneBody=0;fillColor=none;collapsible=0;dropTarget=0;points=[[0,0.5],[1,0.5]];portConstraint=eastwest;top=0;left=0;right=0;bottom=1;" parent="yBVMHAFfP1PsOILajYzC-30" vertex="1">
          <mxGeometry y="30" width="240" height="40" as="geometry" />
        </mxCell>
        <mxCell id="yBVMHAFfP1PsOILajYzC-32" value="PK" style="shape=partialRectangle;connectable=0;fillColor=none;top=0;left=0;bottom=0;right=0;fontStyle=1;overflow=hidden;whiteSpace=wrap;html=1;" parent="yBVMHAFfP1PsOILajYzC-31" vertex="1">
          <mxGeometry width="30" height="40" as="geometry">
            <mxRectangle width="30" height="40" as="alternateBounds" />
          </mxGeometry>
        </mxCell>
        <mxCell id="yBVMHAFfP1PsOILajYzC-33" value="&lt;b&gt;&lt;u&gt;regi_id&lt;/u&gt;&lt;/b&gt;" style="shape=partialRectangle;connectable=0;fillColor=none;top=0;left=0;bottom=0;right=0;align=left;spacingLeft=6;fontStyle=0;overflow=hidden;whiteSpace=wrap;html=1;" parent="yBVMHAFfP1PsOILajYzC-31" vertex="1">
          <mxGeometry x="30" width="210" height="40" as="geometry">
            <mxRectangle width="210" height="40" as="alternateBounds" />
          </mxGeometry>
        </mxCell>
        <mxCell id="yBVMHAFfP1PsOILajYzC-34" value="" style="shape=tableRow;horizontal=0;startSize=0;swimlaneHead=0;swimlaneBody=0;fillColor=none;collapsible=0;dropTarget=0;points=[[0,0.5],[1,0.5]];portConstraint=eastwest;top=0;left=0;right=0;bottom=0;" parent="yBVMHAFfP1PsOILajYzC-30" vertex="1">
          <mxGeometry y="70" width="240" height="30" as="geometry" />
        </mxCell>
        <mxCell id="yBVMHAFfP1PsOILajYzC-35" value="" style="shape=partialRectangle;connectable=0;fillColor=none;top=0;left=0;bottom=0;right=0;editable=1;overflow=hidden;whiteSpace=wrap;html=1;" parent="yBVMHAFfP1PsOILajYzC-34" vertex="1">
          <mxGeometry width="30" height="30" as="geometry">
            <mxRectangle width="30" height="30" as="alternateBounds" />
          </mxGeometry>
        </mxCell>
        <mxCell id="yBVMHAFfP1PsOILajYzC-36" value="&lt;b&gt;regi_nome&lt;/b&gt;" style="shape=partialRectangle;connectable=0;fillColor=none;top=0;left=0;bottom=0;right=0;align=left;spacingLeft=6;overflow=hidden;whiteSpace=wrap;html=1;" parent="yBVMHAFfP1PsOILajYzC-34" vertex="1">
          <mxGeometry x="30" width="210" height="30" as="geometry">
            <mxRectangle width="210" height="30" as="alternateBounds" />
          </mxGeometry>
        </mxCell>
        <mxCell id="yBVMHAFfP1PsOILajYzC-37" value="" style="shape=tableRow;horizontal=0;startSize=0;swimlaneHead=0;swimlaneBody=0;fillColor=none;collapsible=0;dropTarget=0;points=[[0,0.5],[1,0.5]];portConstraint=eastwest;top=0;left=0;right=0;bottom=0;" parent="yBVMHAFfP1PsOILajYzC-30" vertex="1">
          <mxGeometry y="100" width="240" height="30" as="geometry" />
        </mxCell>
        <mxCell id="yBVMHAFfP1PsOILajYzC-38" value="" style="shape=partialRectangle;connectable=0;fillColor=none;top=0;left=0;bottom=0;right=0;editable=1;overflow=hidden;whiteSpace=wrap;html=1;" parent="yBVMHAFfP1PsOILajYzC-37" vertex="1">
          <mxGeometry width="30" height="30" as="geometry">
            <mxRectangle width="30" height="30" as="alternateBounds" />
          </mxGeometry>
        </mxCell>
        <mxCell id="yBVMHAFfP1PsOILajYzC-39" value="&lt;b&gt;regi_descricao&lt;/b&gt;" style="shape=partialRectangle;connectable=0;fillColor=none;top=0;left=0;bottom=0;right=0;align=left;spacingLeft=6;overflow=hidden;whiteSpace=wrap;html=1;" parent="yBVMHAFfP1PsOILajYzC-37" vertex="1">
          <mxGeometry x="30" width="210" height="30" as="geometry">
            <mxRectangle width="210" height="30" as="alternateBounds" />
          </mxGeometry>
        </mxCell>
        <mxCell id="yBVMHAFfP1PsOILajYzC-40" value="" style="shape=tableRow;horizontal=0;startSize=0;swimlaneHead=0;swimlaneBody=0;fillColor=none;collapsible=0;dropTarget=0;points=[[0,0.5],[1,0.5]];portConstraint=eastwest;top=0;left=0;right=0;bottom=0;" parent="yBVMHAFfP1PsOILajYzC-30" vertex="1">
          <mxGeometry y="130" width="240" height="30" as="geometry" />
        </mxCell>
        <mxCell id="yBVMHAFfP1PsOILajYzC-41" value="" style="shape=partialRectangle;connectable=0;fillColor=none;top=0;left=0;bottom=0;right=0;editable=1;overflow=hidden;whiteSpace=wrap;html=1;" parent="yBVMHAFfP1PsOILajYzC-40" vertex="1">
          <mxGeometry width="30" height="30" as="geometry">
            <mxRectangle width="30" height="30" as="alternateBounds" />
          </mxGeometry>
        </mxCell>
        <mxCell id="yBVMHAFfP1PsOILajYzC-42" value="&lt;b&gt;regi_imite_faturamento_anual&lt;/b&gt;" style="shape=partialRectangle;connectable=0;fillColor=none;top=0;left=0;bottom=0;right=0;align=left;spacingLeft=6;overflow=hidden;whiteSpace=wrap;html=1;" parent="yBVMHAFfP1PsOILajYzC-40" vertex="1">
          <mxGeometry x="30" width="210" height="30" as="geometry">
            <mxRectangle width="210" height="30" as="alternateBounds" />
          </mxGeometry>
        </mxCell>
        <mxCell id="t3WniyW4iyBg4lmgIeA--1" value="" style="shape=tableRow;horizontal=0;startSize=0;swimlaneHead=0;swimlaneBody=0;fillColor=none;collapsible=0;dropTarget=0;points=[[0,0.5],[1,0.5]];portConstraint=eastwest;top=0;left=0;right=0;bottom=0;" parent="yBVMHAFfP1PsOILajYzC-30" vertex="1">
          <mxGeometry y="160" width="240" height="30" as="geometry" />
        </mxCell>
        <mxCell id="t3WniyW4iyBg4lmgIeA--2" value="" style="shape=partialRectangle;connectable=0;fillColor=none;top=0;left=0;bottom=0;right=0;editable=1;overflow=hidden;" parent="t3WniyW4iyBg4lmgIeA--1" vertex="1">
          <mxGeometry width="30" height="30" as="geometry">
            <mxRectangle width="30" height="30" as="alternateBounds" />
          </mxGeometry>
        </mxCell>
        <mxCell id="t3WniyW4iyBg4lmgIeA--3" value="regi_tipo_empresa_permitida" style="shape=partialRectangle;connectable=0;fillColor=none;top=0;left=0;bottom=0;right=0;align=left;spacingLeft=6;overflow=hidden;fontStyle=1" parent="t3WniyW4iyBg4lmgIeA--1" vertex="1">
          <mxGeometry x="30" width="210" height="30" as="geometry">
            <mxRectangle width="210" height="30" as="alternateBounds" />
          </mxGeometry>
        </mxCell>
        <mxCell id="t3WniyW4iyBg4lmgIeA--4" value="" style="shape=tableRow;horizontal=0;startSize=0;swimlaneHead=0;swimlaneBody=0;fillColor=none;collapsible=0;dropTarget=0;points=[[0,0.5],[1,0.5]];portConstraint=eastwest;top=0;left=0;right=0;bottom=0;" parent="yBVMHAFfP1PsOILajYzC-30" vertex="1">
          <mxGeometry y="190" width="240" height="30" as="geometry" />
        </mxCell>
        <mxCell id="t3WniyW4iyBg4lmgIeA--5" value="" style="shape=partialRectangle;connectable=0;fillColor=none;top=0;left=0;bottom=0;right=0;editable=1;overflow=hidden;" parent="t3WniyW4iyBg4lmgIeA--4" vertex="1">
          <mxGeometry width="30" height="30" as="geometry">
            <mxRectangle width="30" height="30" as="alternateBounds" />
          </mxGeometry>
        </mxCell>
        <mxCell id="t3WniyW4iyBg4lmgIeA--6" value="regi_ativo" style="shape=partialRectangle;connectable=0;fillColor=none;top=0;left=0;bottom=0;right=0;align=left;spacingLeft=6;overflow=hidden;fontStyle=1" parent="t3WniyW4iyBg4lmgIeA--4" vertex="1">
          <mxGeometry x="30" width="210" height="30" as="geometry">
            <mxRectangle width="210" height="30" as="alternateBounds" />
          </mxGeometry>
        </mxCell>
        <mxCell id="yBVMHAFfP1PsOILajYzC-43" value="REGIME_EMPRESA" style="shape=table;startSize=30;container=1;collapsible=1;childLayout=tableLayout;fixedRows=1;rowLines=0;fontStyle=1;align=center;resizeLast=1;html=1;rounded=1;fillColor=#d5e8d4;strokeColor=#82b366;" parent="1" vertex="1">
          <mxGeometry x="1138" y="483" width="240" height="270" as="geometry" />
        </mxCell>
        <mxCell id="yBVMHAFfP1PsOILajYzC-44" value="" style="shape=tableRow;horizontal=0;startSize=0;swimlaneHead=0;swimlaneBody=0;fillColor=none;collapsible=0;dropTarget=0;points=[[0,0.5],[1,0.5]];portConstraint=eastwest;top=0;left=0;right=0;bottom=1;" parent="yBVMHAFfP1PsOILajYzC-43" vertex="1">
          <mxGeometry y="30" width="240" height="30" as="geometry" />
        </mxCell>
        <mxCell id="yBVMHAFfP1PsOILajYzC-45" value="PK" style="shape=partialRectangle;connectable=0;fillColor=none;top=0;left=0;bottom=0;right=0;fontStyle=1;overflow=hidden;whiteSpace=wrap;html=1;" parent="yBVMHAFfP1PsOILajYzC-44" vertex="1">
          <mxGeometry width="30" height="30" as="geometry">
            <mxRectangle width="30" height="30" as="alternateBounds" />
          </mxGeometry>
        </mxCell>
        <mxCell id="yBVMHAFfP1PsOILajYzC-46" value="&lt;b&gt;&lt;u&gt;regiemp_id&lt;/u&gt;&lt;/b&gt;" style="shape=partialRectangle;connectable=0;fillColor=none;top=0;left=0;bottom=0;right=0;align=left;spacingLeft=6;fontStyle=0;overflow=hidden;whiteSpace=wrap;html=1;" parent="yBVMHAFfP1PsOILajYzC-44" vertex="1">
          <mxGeometry x="30" width="210" height="30" as="geometry">
            <mxRectangle width="210" height="30" as="alternateBounds" />
          </mxGeometry>
        </mxCell>
        <mxCell id="E9BGw7JvG6-Icw3DdG-G-15" value="" style="shape=tableRow;horizontal=0;startSize=0;swimlaneHead=0;swimlaneBody=0;fillColor=none;collapsible=0;dropTarget=0;points=[[0,0.5],[1,0.5]];portConstraint=eastwest;top=0;left=0;right=0;bottom=0;" parent="yBVMHAFfP1PsOILajYzC-43" vertex="1">
          <mxGeometry y="60" width="240" height="30" as="geometry" />
        </mxCell>
        <mxCell id="E9BGw7JvG6-Icw3DdG-G-16" value="&lt;b&gt;FK&lt;/b&gt;" style="shape=partialRectangle;connectable=0;fillColor=none;top=0;left=0;bottom=0;right=0;fontStyle=0;overflow=hidden;whiteSpace=wrap;html=1;" parent="E9BGw7JvG6-Icw3DdG-G-15" vertex="1">
          <mxGeometry width="30" height="30" as="geometry">
            <mxRectangle width="30" height="30" as="alternateBounds" />
          </mxGeometry>
        </mxCell>
        <mxCell id="E9BGw7JvG6-Icw3DdG-G-17" value="regi_id" style="shape=partialRectangle;connectable=0;fillColor=none;top=0;left=0;bottom=0;right=0;align=left;spacingLeft=6;fontStyle=1;overflow=hidden;whiteSpace=wrap;html=1;" parent="E9BGw7JvG6-Icw3DdG-G-15" vertex="1">
          <mxGeometry x="30" width="210" height="30" as="geometry">
            <mxRectangle width="210" height="30" as="alternateBounds" />
          </mxGeometry>
        </mxCell>
        <mxCell id="E9BGw7JvG6-Icw3DdG-G-19" value="" style="shape=tableRow;horizontal=0;startSize=0;swimlaneHead=0;swimlaneBody=0;fillColor=none;collapsible=0;dropTarget=0;points=[[0,0.5],[1,0.5]];portConstraint=eastwest;top=0;left=0;right=0;bottom=0;" parent="yBVMHAFfP1PsOILajYzC-43" vertex="1">
          <mxGeometry y="90" width="240" height="30" as="geometry" />
        </mxCell>
        <mxCell id="E9BGw7JvG6-Icw3DdG-G-20" value="&lt;b&gt;FK&lt;/b&gt;" style="shape=partialRectangle;connectable=0;fillColor=none;top=0;left=0;bottom=0;right=0;fontStyle=0;overflow=hidden;whiteSpace=wrap;html=1;" parent="E9BGw7JvG6-Icw3DdG-G-19" vertex="1">
          <mxGeometry width="30" height="30" as="geometry">
            <mxRectangle width="30" height="30" as="alternateBounds" />
          </mxGeometry>
        </mxCell>
        <mxCell id="E9BGw7JvG6-Icw3DdG-G-21" value="emp_id" style="shape=partialRectangle;connectable=0;fillColor=none;top=0;left=0;bottom=0;right=0;align=left;spacingLeft=6;fontStyle=1;overflow=hidden;whiteSpace=wrap;html=1;" parent="E9BGw7JvG6-Icw3DdG-G-19" vertex="1">
          <mxGeometry x="30" width="210" height="30" as="geometry">
            <mxRectangle width="210" height="30" as="alternateBounds" />
          </mxGeometry>
        </mxCell>
        <mxCell id="yBVMHAFfP1PsOILajYzC-47" value="" style="shape=tableRow;horizontal=0;startSize=0;swimlaneHead=0;swimlaneBody=0;fillColor=none;collapsible=0;dropTarget=0;points=[[0,0.5],[1,0.5]];portConstraint=eastwest;top=0;left=0;right=0;bottom=0;" parent="yBVMHAFfP1PsOILajYzC-43" vertex="1">
          <mxGeometry y="120" width="240" height="30" as="geometry" />
        </mxCell>
        <mxCell id="yBVMHAFfP1PsOILajYzC-48" value="" style="shape=partialRectangle;connectable=0;fillColor=none;top=0;left=0;bottom=0;right=0;editable=1;overflow=hidden;whiteSpace=wrap;html=1;" parent="yBVMHAFfP1PsOILajYzC-47" vertex="1">
          <mxGeometry width="30" height="30" as="geometry">
            <mxRectangle width="30" height="30" as="alternateBounds" />
          </mxGeometry>
        </mxCell>
        <mxCell id="yBVMHAFfP1PsOILajYzC-49" value="regiemp_data_inicio" style="shape=partialRectangle;connectable=0;fillColor=none;top=0;left=0;bottom=0;right=0;align=left;spacingLeft=6;overflow=hidden;whiteSpace=wrap;html=1;fontStyle=1" parent="yBVMHAFfP1PsOILajYzC-47" vertex="1">
          <mxGeometry x="30" width="210" height="30" as="geometry">
            <mxRectangle width="210" height="30" as="alternateBounds" />
          </mxGeometry>
        </mxCell>
        <mxCell id="yBVMHAFfP1PsOILajYzC-50" value="" style="shape=tableRow;horizontal=0;startSize=0;swimlaneHead=0;swimlaneBody=0;fillColor=none;collapsible=0;dropTarget=0;points=[[0,0.5],[1,0.5]];portConstraint=eastwest;top=0;left=0;right=0;bottom=0;" parent="yBVMHAFfP1PsOILajYzC-43" vertex="1">
          <mxGeometry y="150" width="240" height="30" as="geometry" />
        </mxCell>
        <mxCell id="yBVMHAFfP1PsOILajYzC-51" value="" style="shape=partialRectangle;connectable=0;fillColor=none;top=0;left=0;bottom=0;right=0;editable=1;overflow=hidden;whiteSpace=wrap;html=1;" parent="yBVMHAFfP1PsOILajYzC-50" vertex="1">
          <mxGeometry width="30" height="30" as="geometry">
            <mxRectangle width="30" height="30" as="alternateBounds" />
          </mxGeometry>
        </mxCell>
        <mxCell id="yBVMHAFfP1PsOILajYzC-52" value="regiemp_data_fim" style="shape=partialRectangle;connectable=0;fillColor=none;top=0;left=0;bottom=0;right=0;align=left;spacingLeft=6;overflow=hidden;whiteSpace=wrap;html=1;fontStyle=1" parent="yBVMHAFfP1PsOILajYzC-50" vertex="1">
          <mxGeometry x="30" width="210" height="30" as="geometry">
            <mxRectangle width="210" height="30" as="alternateBounds" />
          </mxGeometry>
        </mxCell>
        <mxCell id="yBVMHAFfP1PsOILajYzC-53" value="" style="shape=tableRow;horizontal=0;startSize=0;swimlaneHead=0;swimlaneBody=0;fillColor=none;collapsible=0;dropTarget=0;points=[[0,0.5],[1,0.5]];portConstraint=eastwest;top=0;left=0;right=0;bottom=0;" parent="yBVMHAFfP1PsOILajYzC-43" vertex="1">
          <mxGeometry y="180" width="240" height="30" as="geometry" />
        </mxCell>
        <mxCell id="yBVMHAFfP1PsOILajYzC-54" value="" style="shape=partialRectangle;connectable=0;fillColor=none;top=0;left=0;bottom=0;right=0;editable=1;overflow=hidden;whiteSpace=wrap;html=1;" parent="yBVMHAFfP1PsOILajYzC-53" vertex="1">
          <mxGeometry width="30" height="30" as="geometry">
            <mxRectangle width="30" height="30" as="alternateBounds" />
          </mxGeometry>
        </mxCell>
        <mxCell id="yBVMHAFfP1PsOILajYzC-55" value="regiemp_motivo_alteracao" style="shape=partialRectangle;connectable=0;fillColor=none;top=0;left=0;bottom=0;right=0;align=left;spacingLeft=6;overflow=hidden;whiteSpace=wrap;html=1;fontStyle=1" parent="yBVMHAFfP1PsOILajYzC-53" vertex="1">
          <mxGeometry x="30" width="210" height="30" as="geometry">
            <mxRectangle width="210" height="30" as="alternateBounds" />
          </mxGeometry>
        </mxCell>
        <mxCell id="t3WniyW4iyBg4lmgIeA--10" value="" style="shape=tableRow;horizontal=0;startSize=0;swimlaneHead=0;swimlaneBody=0;fillColor=none;collapsible=0;dropTarget=0;points=[[0,0.5],[1,0.5]];portConstraint=eastwest;top=0;left=0;right=0;bottom=0;" parent="yBVMHAFfP1PsOILajYzC-43" vertex="1">
          <mxGeometry y="210" width="240" height="30" as="geometry" />
        </mxCell>
        <mxCell id="t3WniyW4iyBg4lmgIeA--11" value="" style="shape=partialRectangle;connectable=0;fillColor=none;top=0;left=0;bottom=0;right=0;editable=1;overflow=hidden;" parent="t3WniyW4iyBg4lmgIeA--10" vertex="1">
          <mxGeometry width="30" height="30" as="geometry">
            <mxRectangle width="30" height="30" as="alternateBounds" />
          </mxGeometry>
        </mxCell>
        <mxCell id="t3WniyW4iyBg4lmgIeA--12" value="regiemp_status" style="shape=partialRectangle;connectable=0;fillColor=none;top=0;left=0;bottom=0;right=0;align=left;spacingLeft=6;overflow=hidden;fontStyle=1" parent="t3WniyW4iyBg4lmgIeA--10" vertex="1">
          <mxGeometry x="30" width="210" height="30" as="geometry">
            <mxRectangle width="210" height="30" as="alternateBounds" />
          </mxGeometry>
        </mxCell>
        <mxCell id="t3WniyW4iyBg4lmgIeA--13" value="" style="shape=tableRow;horizontal=0;startSize=0;swimlaneHead=0;swimlaneBody=0;fillColor=none;collapsible=0;dropTarget=0;points=[[0,0.5],[1,0.5]];portConstraint=eastwest;top=0;left=0;right=0;bottom=0;" parent="yBVMHAFfP1PsOILajYzC-43" vertex="1">
          <mxGeometry y="240" width="240" height="30" as="geometry" />
        </mxCell>
        <mxCell id="t3WniyW4iyBg4lmgIeA--14" value="" style="shape=partialRectangle;connectable=0;fillColor=none;top=0;left=0;bottom=0;right=0;editable=1;overflow=hidden;" parent="t3WniyW4iyBg4lmgIeA--13" vertex="1">
          <mxGeometry width="30" height="30" as="geometry">
            <mxRectangle width="30" height="30" as="alternateBounds" />
          </mxGeometry>
        </mxCell>
        <mxCell id="t3WniyW4iyBg4lmgIeA--15" value="regiemp_observacoes" style="shape=partialRectangle;connectable=0;fillColor=none;top=0;left=0;bottom=0;right=0;align=left;spacingLeft=6;overflow=hidden;fontStyle=1" parent="t3WniyW4iyBg4lmgIeA--13" vertex="1">
          <mxGeometry x="30" width="210" height="30" as="geometry">
            <mxRectangle width="210" height="30" as="alternateBounds" />
          </mxGeometry>
        </mxCell>
        <mxCell id="oVngLNcCz2MQp9PnumgH-9" value="" style="endArrow=ERone;html=1;rounded=0;strokeWidth=2;startArrow=ERmany;startFill=0;endFill=0;exitX=1;exitY=0.5;exitDx=0;exitDy=0;entryX=0;entryY=0.5;entryDx=0;entryDy=0;edgeStyle=orthogonalEdgeStyle;startSize=10;endSize=10;" parent="1" source="E9BGw7JvG6-Icw3DdG-G-19" target="yBVMHAFfP1PsOILajYzC-58" edge="1">
          <mxGeometry relative="1" as="geometry">
            <mxPoint x="1229.7600000000002" y="520.6800000000001" as="sourcePoint" />
            <mxPoint x="1580" y="535" as="targetPoint" />
          </mxGeometry>
        </mxCell>
        <mxCell id="oVngLNcCz2MQp9PnumgH-10" value="" style="endArrow=ERone;html=1;rounded=0;strokeWidth=2;startArrow=ERmany;startFill=0;endFill=0;exitX=0;exitY=0.5;exitDx=0;exitDy=0;entryX=1;entryY=0.5;entryDx=0;entryDy=0;edgeStyle=orthogonalEdgeStyle;startSize=10;endSize=10;" parent="1" source="E9BGw7JvG6-Icw3DdG-G-15" target="yBVMHAFfP1PsOILajYzC-31" edge="1">
          <mxGeometry relative="1" as="geometry">
            <mxPoint x="990" y="510" as="sourcePoint" />
            <mxPoint x="953.88" y="550" as="targetPoint" />
          </mxGeometry>
        </mxCell>
        <mxCell id="yBVMHAFfP1PsOILajYzC-13" value="USUARIOS_EMPRESAS" style="shape=table;startSize=30;container=1;collapsible=1;childLayout=tableLayout;fixedRows=1;rowLines=0;fontStyle=1;align=center;resizeLast=1;html=1;rounded=1;fillColor=#d5e8d4;strokeColor=#82b366;" parent="1" vertex="1">
          <mxGeometry x="1050" y="1200" width="238" height="205" as="geometry" />
        </mxCell>
        <mxCell id="yBVMHAFfP1PsOILajYzC-105" value="" style="shape=tableRow;horizontal=0;startSize=0;swimlaneHead=0;swimlaneBody=0;fillColor=none;collapsible=0;dropTarget=0;points=[[0,0.5],[1,0.5]];portConstraint=eastwest;top=0;left=0;right=0;bottom=0;" parent="yBVMHAFfP1PsOILajYzC-13" vertex="1">
          <mxGeometry y="30" width="238" height="33" as="geometry" />
        </mxCell>
        <mxCell id="yBVMHAFfP1PsOILajYzC-106" value="&lt;b&gt;PK FK&lt;/b&gt;" style="shape=partialRectangle;connectable=0;fillColor=none;top=0;left=0;bottom=0;right=0;fontStyle=0;overflow=hidden;whiteSpace=wrap;html=1;" parent="yBVMHAFfP1PsOILajYzC-105" vertex="1">
          <mxGeometry width="75.86956521739171" height="33" as="geometry">
            <mxRectangle width="75.86956521739171" height="33" as="alternateBounds" />
          </mxGeometry>
        </mxCell>
        <mxCell id="yBVMHAFfP1PsOILajYzC-107" value="&lt;b&gt;emp_id&lt;/b&gt;" style="shape=partialRectangle;connectable=0;fillColor=none;top=0;left=0;bottom=0;right=0;align=left;spacingLeft=6;fontStyle=0;overflow=hidden;whiteSpace=wrap;html=1;" parent="yBVMHAFfP1PsOILajYzC-105" vertex="1">
          <mxGeometry x="75.86956521739171" width="162.1304347826083" height="33" as="geometry">
            <mxRectangle width="162.1304347826083" height="33" as="alternateBounds" />
          </mxGeometry>
        </mxCell>
        <mxCell id="yBVMHAFfP1PsOILajYzC-14" value="" style="shape=tableRow;horizontal=0;startSize=0;swimlaneHead=0;swimlaneBody=0;fillColor=none;collapsible=0;dropTarget=0;points=[[0,0.5],[1,0.5]];portConstraint=eastwest;top=0;left=0;right=0;bottom=1;" parent="yBVMHAFfP1PsOILajYzC-13" vertex="1">
          <mxGeometry y="63" width="238" height="22" as="geometry" />
        </mxCell>
        <mxCell id="yBVMHAFfP1PsOILajYzC-15" value="PK FK" style="shape=partialRectangle;connectable=0;fillColor=none;top=0;left=0;bottom=0;right=0;fontStyle=1;overflow=hidden;whiteSpace=wrap;html=1;" parent="yBVMHAFfP1PsOILajYzC-14" vertex="1">
          <mxGeometry width="75.86956521739171" height="22" as="geometry">
            <mxRectangle width="75.86956521739171" height="22" as="alternateBounds" />
          </mxGeometry>
        </mxCell>
        <mxCell id="yBVMHAFfP1PsOILajYzC-16" value="&lt;b&gt;usu_id&lt;/b&gt;" style="shape=partialRectangle;connectable=0;fillColor=none;top=0;left=0;bottom=0;right=0;align=left;spacingLeft=6;fontStyle=0;overflow=hidden;whiteSpace=wrap;html=1;" parent="yBVMHAFfP1PsOILajYzC-14" vertex="1">
          <mxGeometry x="75.86956521739171" width="162.1304347826083" height="22" as="geometry">
            <mxRectangle width="162.1304347826083" height="22" as="alternateBounds" />
          </mxGeometry>
        </mxCell>
        <mxCell id="yBVMHAFfP1PsOILajYzC-17" value="" style="shape=tableRow;horizontal=0;startSize=0;swimlaneHead=0;swimlaneBody=0;fillColor=none;collapsible=0;dropTarget=0;points=[[0,0.5],[1,0.5]];portConstraint=eastwest;top=0;left=0;right=0;bottom=0;" parent="yBVMHAFfP1PsOILajYzC-13" vertex="1">
          <mxGeometry y="85" width="238" height="30" as="geometry" />
        </mxCell>
        <mxCell id="yBVMHAFfP1PsOILajYzC-18" value="" style="shape=partialRectangle;connectable=0;fillColor=none;top=0;left=0;bottom=0;right=0;editable=1;overflow=hidden;whiteSpace=wrap;html=1;" parent="yBVMHAFfP1PsOILajYzC-17" vertex="1">
          <mxGeometry width="75.86956521739171" height="30" as="geometry">
            <mxRectangle width="75.86956521739171" height="30" as="alternateBounds" />
          </mxGeometry>
        </mxCell>
        <mxCell id="yBVMHAFfP1PsOILajYzC-19" value="&lt;font style=&quot;&quot;&gt;&lt;b&gt;usu_emp_nivel_acesso&lt;/b&gt;&lt;/font&gt;" style="shape=partialRectangle;connectable=0;fillColor=none;top=0;left=0;bottom=0;right=0;align=left;spacingLeft=6;overflow=hidden;whiteSpace=wrap;html=1;fontColor=default;" parent="yBVMHAFfP1PsOILajYzC-17" vertex="1">
          <mxGeometry x="75.86956521739171" width="162.1304347826083" height="30" as="geometry">
            <mxRectangle width="162.1304347826083" height="30" as="alternateBounds" />
          </mxGeometry>
        </mxCell>
        <mxCell id="yBVMHAFfP1PsOILajYzC-20" value="" style="shape=tableRow;horizontal=0;startSize=0;swimlaneHead=0;swimlaneBody=0;fillColor=none;collapsible=0;dropTarget=0;points=[[0,0.5],[1,0.5]];portConstraint=eastwest;top=0;left=0;right=0;bottom=0;" parent="yBVMHAFfP1PsOILajYzC-13" vertex="1">
          <mxGeometry y="115" width="238" height="30" as="geometry" />
        </mxCell>
        <mxCell id="yBVMHAFfP1PsOILajYzC-21" value="" style="shape=partialRectangle;connectable=0;fillColor=none;top=0;left=0;bottom=0;right=0;editable=1;overflow=hidden;whiteSpace=wrap;html=1;" parent="yBVMHAFfP1PsOILajYzC-20" vertex="1">
          <mxGeometry width="75.86956521739171" height="30" as="geometry">
            <mxRectangle width="75.86956521739171" height="30" as="alternateBounds" />
          </mxGeometry>
        </mxCell>
        <mxCell id="yBVMHAFfP1PsOILajYzC-22" value="&lt;b&gt;usu_emp_data_vinculo&lt;/b&gt;" style="shape=partialRectangle;connectable=0;fillColor=none;top=0;left=0;bottom=0;right=0;align=left;spacingLeft=6;overflow=hidden;whiteSpace=wrap;html=1;" parent="yBVMHAFfP1PsOILajYzC-20" vertex="1">
          <mxGeometry x="75.86956521739171" width="162.1304347826083" height="30" as="geometry">
            <mxRectangle width="162.1304347826083" height="30" as="alternateBounds" />
          </mxGeometry>
        </mxCell>
        <mxCell id="yBVMHAFfP1PsOILajYzC-23" value="" style="shape=tableRow;horizontal=0;startSize=0;swimlaneHead=0;swimlaneBody=0;fillColor=none;collapsible=0;dropTarget=0;points=[[0,0.5],[1,0.5]];portConstraint=eastwest;top=0;left=0;right=0;bottom=0;" parent="yBVMHAFfP1PsOILajYzC-13" vertex="1">
          <mxGeometry y="145" width="238" height="30" as="geometry" />
        </mxCell>
        <mxCell id="yBVMHAFfP1PsOILajYzC-24" value="" style="shape=partialRectangle;connectable=0;fillColor=none;top=0;left=0;bottom=0;right=0;editable=1;overflow=hidden;whiteSpace=wrap;html=1;" parent="yBVMHAFfP1PsOILajYzC-23" vertex="1">
          <mxGeometry width="75.86956521739171" height="30" as="geometry">
            <mxRectangle width="75.86956521739171" height="30" as="alternateBounds" />
          </mxGeometry>
        </mxCell>
        <mxCell id="yBVMHAFfP1PsOILajYzC-25" value="&lt;b&gt;usu_emp_ativo&lt;/b&gt;" style="shape=partialRectangle;connectable=0;fillColor=none;top=0;left=0;bottom=0;right=0;align=left;spacingLeft=6;overflow=hidden;whiteSpace=wrap;html=1;" parent="yBVMHAFfP1PsOILajYzC-23" vertex="1">
          <mxGeometry x="75.86956521739171" width="162.1304347826083" height="30" as="geometry">
            <mxRectangle width="162.1304347826083" height="30" as="alternateBounds" />
          </mxGeometry>
        </mxCell>
        <mxCell id="t3WniyW4iyBg4lmgIeA--30" value="" style="shape=tableRow;horizontal=0;startSize=0;swimlaneHead=0;swimlaneBody=0;fillColor=none;collapsible=0;dropTarget=0;points=[[0,0.5],[1,0.5]];portConstraint=eastwest;top=0;left=0;right=0;bottom=0;" parent="yBVMHAFfP1PsOILajYzC-13" vertex="1">
          <mxGeometry y="175" width="238" height="30" as="geometry" />
        </mxCell>
        <mxCell id="t3WniyW4iyBg4lmgIeA--31" value="" style="shape=partialRectangle;connectable=0;fillColor=none;top=0;left=0;bottom=0;right=0;editable=1;overflow=hidden;" parent="t3WniyW4iyBg4lmgIeA--30" vertex="1">
          <mxGeometry width="75.86956521739171" height="30" as="geometry">
            <mxRectangle width="75.86956521739171" height="30" as="alternateBounds" />
          </mxGeometry>
        </mxCell>
        <mxCell id="t3WniyW4iyBg4lmgIeA--32" value="usu_emp_observacoes" style="shape=partialRectangle;connectable=0;fillColor=none;top=0;left=0;bottom=0;right=0;align=left;spacingLeft=6;overflow=hidden;" parent="t3WniyW4iyBg4lmgIeA--30" vertex="1">
          <mxGeometry x="75.86956521739171" width="162.1304347826083" height="30" as="geometry">
            <mxRectangle width="162.1304347826083" height="30" as="alternateBounds" />
          </mxGeometry>
        </mxCell>
        <mxCell id="oVngLNcCz2MQp9PnumgH-11" value="" style="endArrow=ERone;html=1;rounded=0;strokeWidth=2;startArrow=ERmany;startFill=0;endFill=0;exitX=1;exitY=0.5;exitDx=0;exitDy=0;entryX=1;entryY=0.5;entryDx=0;entryDy=0;edgeStyle=orthogonalEdgeStyle;startSize=10;endSize=10;" parent="1" source="E9BGw7JvG6-Icw3DdG-G-49" target="yBVMHAFfP1PsOILajYzC-58" edge="1">
          <mxGeometry relative="1" as="geometry">
            <mxPoint x="1790" y="981.15" as="sourcePoint" />
            <mxPoint x="1822.6399999999999" y="550" as="targetPoint" />
            <Array as="points">
              <mxPoint x="1920" y="975" />
              <mxPoint x="1920" y="535" />
            </Array>
          </mxGeometry>
        </mxCell>
        <mxCell id="oVngLNcCz2MQp9PnumgH-15" value="" style="endArrow=ERone;html=1;rounded=0;strokeWidth=2;startArrow=ERmany;startFill=0;endFill=0;edgeStyle=orthogonalEdgeStyle;entryX=0;entryY=0.5;entryDx=0;entryDy=0;exitX=1;exitY=0.5;exitDx=0;exitDy=0;startSize=10;endSize=10;" parent="1" source="yBVMHAFfP1PsOILajYzC-105" target="yBVMHAFfP1PsOILajYzC-58" edge="1">
          <mxGeometry relative="1" as="geometry">
            <mxPoint x="1350" y="1277" as="sourcePoint" />
            <mxPoint x="1580.72" y="549.5500000000001" as="targetPoint" />
            <Array as="points">
              <mxPoint x="1497" y="1247" />
              <mxPoint x="1497" y="535" />
            </Array>
          </mxGeometry>
        </mxCell>
        <mxCell id="aTb8cRAbQJP4SxeHpOCR-106" value="PRAZOS" style="shape=table;startSize=30;container=1;collapsible=1;childLayout=tableLayout;fixedRows=1;rowLines=0;fontStyle=1;align=center;resizeLast=1;html=1;rounded=1;fillColor=#d5e8d4;strokeColor=#82b366;" parent="1" vertex="1">
          <mxGeometry x="1580" y="900" width="240" height="180" as="geometry" />
        </mxCell>
        <mxCell id="aTb8cRAbQJP4SxeHpOCR-107" value="" style="shape=tableRow;horizontal=0;startSize=0;swimlaneHead=0;swimlaneBody=0;fillColor=none;collapsible=0;dropTarget=0;points=[[0,0.5],[1,0.5]];portConstraint=eastwest;top=0;left=0;right=0;bottom=1;" parent="aTb8cRAbQJP4SxeHpOCR-106" vertex="1">
          <mxGeometry y="30" width="240" height="30" as="geometry" />
        </mxCell>
        <mxCell id="aTb8cRAbQJP4SxeHpOCR-108" value="PK" style="shape=partialRectangle;connectable=0;fillColor=none;top=0;left=0;bottom=0;right=0;fontStyle=1;overflow=hidden;whiteSpace=wrap;html=1;" parent="aTb8cRAbQJP4SxeHpOCR-107" vertex="1">
          <mxGeometry width="30" height="30" as="geometry">
            <mxRectangle width="30" height="30" as="alternateBounds" />
          </mxGeometry>
        </mxCell>
        <mxCell id="aTb8cRAbQJP4SxeHpOCR-109" value="&lt;u&gt;praz_id&lt;/u&gt;" style="shape=partialRectangle;connectable=0;fillColor=none;top=0;left=0;bottom=0;right=0;align=left;spacingLeft=6;fontStyle=1;overflow=hidden;whiteSpace=wrap;html=1;" parent="aTb8cRAbQJP4SxeHpOCR-107" vertex="1">
          <mxGeometry x="30" width="210" height="30" as="geometry">
            <mxRectangle width="210" height="30" as="alternateBounds" />
          </mxGeometry>
        </mxCell>
        <mxCell id="E9BGw7JvG6-Icw3DdG-G-49" value="" style="shape=tableRow;horizontal=0;startSize=0;swimlaneHead=0;swimlaneBody=0;fillColor=none;collapsible=0;dropTarget=0;points=[[0,0.5],[1,0.5]];portConstraint=eastwest;top=0;left=0;right=0;bottom=0;" parent="aTb8cRAbQJP4SxeHpOCR-106" vertex="1">
          <mxGeometry y="60" width="240" height="30" as="geometry" />
        </mxCell>
        <mxCell id="E9BGw7JvG6-Icw3DdG-G-50" value="&lt;b&gt;FK&lt;/b&gt;" style="shape=partialRectangle;connectable=0;fillColor=none;top=0;left=0;bottom=0;right=0;fontStyle=0;overflow=hidden;whiteSpace=wrap;html=1;" parent="E9BGw7JvG6-Icw3DdG-G-49" vertex="1">
          <mxGeometry width="30" height="30" as="geometry">
            <mxRectangle width="30" height="30" as="alternateBounds" />
          </mxGeometry>
        </mxCell>
        <mxCell id="E9BGw7JvG6-Icw3DdG-G-51" value="&lt;b&gt;emp_id&lt;/b&gt;" style="shape=partialRectangle;connectable=0;fillColor=none;top=0;left=0;bottom=0;right=0;align=left;spacingLeft=6;fontStyle=0;overflow=hidden;whiteSpace=wrap;html=1;" parent="E9BGw7JvG6-Icw3DdG-G-49" vertex="1">
          <mxGeometry x="30" width="210" height="30" as="geometry">
            <mxRectangle width="210" height="30" as="alternateBounds" />
          </mxGeometry>
        </mxCell>
        <mxCell id="aTb8cRAbQJP4SxeHpOCR-110" value="" style="shape=tableRow;horizontal=0;startSize=0;swimlaneHead=0;swimlaneBody=0;fillColor=none;collapsible=0;dropTarget=0;points=[[0,0.5],[1,0.5]];portConstraint=eastwest;top=0;left=0;right=0;bottom=0;" parent="aTb8cRAbQJP4SxeHpOCR-106" vertex="1">
          <mxGeometry y="90" width="240" height="30" as="geometry" />
        </mxCell>
        <mxCell id="aTb8cRAbQJP4SxeHpOCR-111" value="" style="shape=partialRectangle;connectable=0;fillColor=none;top=0;left=0;bottom=0;right=0;editable=1;overflow=hidden;whiteSpace=wrap;html=1;" parent="aTb8cRAbQJP4SxeHpOCR-110" vertex="1">
          <mxGeometry width="30" height="30" as="geometry">
            <mxRectangle width="30" height="30" as="alternateBounds" />
          </mxGeometry>
        </mxCell>
        <mxCell id="aTb8cRAbQJP4SxeHpOCR-112" value="&lt;b&gt;praz_descricao&lt;/b&gt;" style="shape=partialRectangle;connectable=0;fillColor=none;top=0;left=0;bottom=0;right=0;align=left;spacingLeft=6;overflow=hidden;whiteSpace=wrap;html=1;" parent="aTb8cRAbQJP4SxeHpOCR-110" vertex="1">
          <mxGeometry x="30" width="210" height="30" as="geometry">
            <mxRectangle width="210" height="30" as="alternateBounds" />
          </mxGeometry>
        </mxCell>
        <mxCell id="aTb8cRAbQJP4SxeHpOCR-113" value="" style="shape=tableRow;horizontal=0;startSize=0;swimlaneHead=0;swimlaneBody=0;fillColor=none;collapsible=0;dropTarget=0;points=[[0,0.5],[1,0.5]];portConstraint=eastwest;top=0;left=0;right=0;bottom=0;" parent="aTb8cRAbQJP4SxeHpOCR-106" vertex="1">
          <mxGeometry y="120" width="240" height="30" as="geometry" />
        </mxCell>
        <mxCell id="aTb8cRAbQJP4SxeHpOCR-114" value="" style="shape=partialRectangle;connectable=0;fillColor=none;top=0;left=0;bottom=0;right=0;editable=1;overflow=hidden;whiteSpace=wrap;html=1;" parent="aTb8cRAbQJP4SxeHpOCR-113" vertex="1">
          <mxGeometry width="30" height="30" as="geometry">
            <mxRectangle width="30" height="30" as="alternateBounds" />
          </mxGeometry>
        </mxCell>
        <mxCell id="aTb8cRAbQJP4SxeHpOCR-115" value="&lt;b&gt;praz_data_vencimento&lt;/b&gt;" style="shape=partialRectangle;connectable=0;fillColor=none;top=0;left=0;bottom=0;right=0;align=left;spacingLeft=6;overflow=hidden;whiteSpace=wrap;html=1;" parent="aTb8cRAbQJP4SxeHpOCR-113" vertex="1">
          <mxGeometry x="30" width="210" height="30" as="geometry">
            <mxRectangle width="210" height="30" as="alternateBounds" />
          </mxGeometry>
        </mxCell>
        <mxCell id="aTb8cRAbQJP4SxeHpOCR-116" value="" style="shape=tableRow;horizontal=0;startSize=0;swimlaneHead=0;swimlaneBody=0;fillColor=none;collapsible=0;dropTarget=0;points=[[0,0.5],[1,0.5]];portConstraint=eastwest;top=0;left=0;right=0;bottom=0;" parent="aTb8cRAbQJP4SxeHpOCR-106" vertex="1">
          <mxGeometry y="150" width="240" height="30" as="geometry" />
        </mxCell>
        <mxCell id="aTb8cRAbQJP4SxeHpOCR-117" value="" style="shape=partialRectangle;connectable=0;fillColor=none;top=0;left=0;bottom=0;right=0;editable=1;overflow=hidden;whiteSpace=wrap;html=1;" parent="aTb8cRAbQJP4SxeHpOCR-116" vertex="1">
          <mxGeometry width="30" height="30" as="geometry">
            <mxRectangle width="30" height="30" as="alternateBounds" />
          </mxGeometry>
        </mxCell>
        <mxCell id="aTb8cRAbQJP4SxeHpOCR-118" value="&lt;b&gt;praz_status&lt;/b&gt;" style="shape=partialRectangle;connectable=0;fillColor=none;top=0;left=0;bottom=0;right=0;align=left;spacingLeft=6;overflow=hidden;whiteSpace=wrap;html=1;" parent="aTb8cRAbQJP4SxeHpOCR-116" vertex="1">
          <mxGeometry x="30" width="210" height="30" as="geometry">
            <mxRectangle width="210" height="30" as="alternateBounds" />
          </mxGeometry>
        </mxCell>
        <mxCell id="4Sj3fNJxHW9tAyXk-Kuy-1" value="" style="endArrow=ERone;html=1;rounded=0;strokeWidth=2;startArrow=ERmany;startFill=0;endFill=0;exitX=1;exitY=0.5;exitDx=0;exitDy=0;edgeStyle=orthogonalEdgeStyle;entryX=1;entryY=0.5;entryDx=0;entryDy=0;startSize=10;endSize=10;" parent="1" source="a0v2P5sfxZpOZyoatviM-43" target="yBVMHAFfP1PsOILajYzC-58" edge="1">
          <mxGeometry relative="1" as="geometry">
            <mxPoint x="1340" y="201" as="sourcePoint" />
            <mxPoint x="1896" y="523" as="targetPoint" />
            <Array as="points">
              <mxPoint x="1380" y="150" />
              <mxPoint x="1380" y="380" />
              <mxPoint x="1920" y="380" />
              <mxPoint x="1920" y="535" />
            </Array>
          </mxGeometry>
        </mxCell>
        <mxCell id="4Sj3fNJxHW9tAyXk-Kuy-2" value="" style="endArrow=ERone;html=1;rounded=0;strokeWidth=2;startArrow=ERmany;startFill=0;endFill=0;exitX=0;exitY=0.5;exitDx=0;exitDy=0;edgeStyle=orthogonalEdgeStyle;entryX=0;entryY=0.5;entryDx=0;entryDy=0;startSize=10;endSize=10;" parent="1" source="a0v2P5sfxZpOZyoatviM-46" target="aTb8cRAbQJP4SxeHpOCR-23" edge="1">
          <mxGeometry relative="1" as="geometry">
            <mxPoint x="780" y="171" as="sourcePoint" />
            <mxPoint x="431" y="748" as="targetPoint" />
            <Array as="points">
              <mxPoint x="400" y="180" />
              <mxPoint x="400" y="768" />
            </Array>
          </mxGeometry>
        </mxCell>
        <mxCell id="4Sj3fNJxHW9tAyXk-Kuy-3" value="" style="endArrow=ERone;html=1;rounded=0;strokeWidth=2;startArrow=ERmany;startFill=0;endFill=0;exitX=-0.006;exitY=0.396;exitDx=0;exitDy=0;edgeStyle=orthogonalEdgeStyle;entryX=0;entryY=0.5;entryDx=0;entryDy=0;endSize=10;startSize=10;exitPerimeter=0;" parent="1" source="E9BGw7JvG6-Icw3DdG-G-59" target="aTb8cRAbQJP4SxeHpOCR-23" edge="1">
          <mxGeometry relative="1" as="geometry">
            <mxPoint x="300" y="831" as="sourcePoint" />
            <mxPoint x="424" y="863" as="targetPoint" />
            <Array as="points">
              <mxPoint x="400" y="1252" />
              <mxPoint x="400" y="769" />
            </Array>
          </mxGeometry>
        </mxCell>
        <mxCell id="4Sj3fNJxHW9tAyXk-Kuy-8" value="" style="endArrow=ERone;html=1;rounded=0;strokeWidth=2;startArrow=ERmany;startFill=0;endFill=0;exitX=0;exitY=0.5;exitDx=0;exitDy=0;edgeStyle=orthogonalEdgeStyle;entryX=1;entryY=0.5;entryDx=0;entryDy=0;startSize=10;endSize=10;" parent="1" source="yBVMHAFfP1PsOILajYzC-14" target="aTb8cRAbQJP4SxeHpOCR-23" edge="1">
          <mxGeometry relative="1" as="geometry">
            <mxPoint x="830" y="968" as="sourcePoint" />
            <mxPoint x="729" y="850" as="targetPoint" />
          </mxGeometry>
        </mxCell>
        <mxCell id="t3WniyW4iyBg4lmgIeA--33" value="" style="endArrow=ERone;html=1;rounded=0;strokeWidth=2;startArrow=ERmany;startFill=0;endFill=0;edgeStyle=orthogonalEdgeStyle;entryX=1;entryY=0.5;entryDx=0;entryDy=0;startSize=10;endSize=10;exitX=0;exitY=0.5;exitDx=0;exitDy=0;" parent="1" source="E9BGw7JvG6-Icw3DdG-G-43" target="aTb8cRAbQJP4SxeHpOCR-23" edge="1">
          <mxGeometry relative="1" as="geometry">
            <mxPoint x="1014" y="876" as="sourcePoint" />
            <mxPoint x="870" y="907" as="targetPoint" />
            <Array as="points">
              <mxPoint x="1065" y="901" />
              <mxPoint x="1065" y="769" />
            </Array>
          </mxGeometry>
        </mxCell>
        <mxCell id="t3WniyW4iyBg4lmgIeA--35" value="" style="endArrow=ERone;html=1;rounded=0;strokeWidth=2;startArrow=ERmany;startFill=0;endFill=0;edgeStyle=orthogonalEdgeStyle;entryX=1;entryY=0.5;entryDx=0;entryDy=0;startSize=10;endSize=10;exitX=0;exitY=0.5;exitDx=0;exitDy=0;" parent="1" source="E9BGw7JvG6-Icw3DdG-G-40" target="aTb8cRAbQJP4SxeHpOCR-23" edge="1">
          <mxGeometry relative="1" as="geometry">
            <mxPoint x="1103" y="835" as="sourcePoint" />
            <mxPoint x="784" y="780" as="targetPoint" />
            <Array as="points">
              <mxPoint x="1065" y="871" />
              <mxPoint x="1065" y="769" />
            </Array>
          </mxGeometry>
        </mxCell>
        <mxCell id="a0v2P5sfxZpOZyoatviM-4" value="TIPOS_DOCUMENTO" style="shape=table;startSize=30;container=1;collapsible=1;childLayout=tableLayout;fixedRows=1;rowLines=0;fontStyle=1;align=center;resizeLast=1;html=1;rounded=1;fillColor=#d5e8d4;strokeColor=#82b366;" parent="1" vertex="1">
          <mxGeometry x="1164" y="203" width="180" height="90" as="geometry" />
        </mxCell>
        <mxCell id="a0v2P5sfxZpOZyoatviM-5" value="" style="shape=tableRow;horizontal=0;startSize=0;swimlaneHead=0;swimlaneBody=0;fillColor=none;collapsible=0;dropTarget=0;points=[[0,0.5],[1,0.5]];portConstraint=eastwest;top=0;left=0;right=0;bottom=1;" parent="a0v2P5sfxZpOZyoatviM-4" vertex="1">
          <mxGeometry y="30" width="180" height="30" as="geometry" />
        </mxCell>
        <mxCell id="a0v2P5sfxZpOZyoatviM-6" value="PK" style="shape=partialRectangle;connectable=0;fillColor=none;top=0;left=0;bottom=0;right=0;fontStyle=1;overflow=hidden;whiteSpace=wrap;html=1;" parent="a0v2P5sfxZpOZyoatviM-5" vertex="1">
          <mxGeometry width="30" height="30" as="geometry">
            <mxRectangle width="30" height="30" as="alternateBounds" />
          </mxGeometry>
        </mxCell>
        <mxCell id="a0v2P5sfxZpOZyoatviM-7" value="tpd_id" style="shape=partialRectangle;connectable=0;fillColor=none;top=0;left=0;bottom=0;right=0;align=left;spacingLeft=6;fontStyle=5;overflow=hidden;whiteSpace=wrap;html=1;" parent="a0v2P5sfxZpOZyoatviM-5" vertex="1">
          <mxGeometry x="30" width="150" height="30" as="geometry">
            <mxRectangle width="150" height="30" as="alternateBounds" />
          </mxGeometry>
        </mxCell>
        <mxCell id="a0v2P5sfxZpOZyoatviM-8" value="" style="shape=tableRow;horizontal=0;startSize=0;swimlaneHead=0;swimlaneBody=0;fillColor=none;collapsible=0;dropTarget=0;points=[[0,0.5],[1,0.5]];portConstraint=eastwest;top=0;left=0;right=0;bottom=0;" parent="a0v2P5sfxZpOZyoatviM-4" vertex="1">
          <mxGeometry y="60" width="180" height="30" as="geometry" />
        </mxCell>
        <mxCell id="a0v2P5sfxZpOZyoatviM-9" value="" style="shape=partialRectangle;connectable=0;fillColor=none;top=0;left=0;bottom=0;right=0;editable=1;overflow=hidden;whiteSpace=wrap;html=1;" parent="a0v2P5sfxZpOZyoatviM-8" vertex="1">
          <mxGeometry width="30" height="30" as="geometry">
            <mxRectangle width="30" height="30" as="alternateBounds" />
          </mxGeometry>
        </mxCell>
        <mxCell id="a0v2P5sfxZpOZyoatviM-10" value="&lt;b&gt;tpd_descricao&lt;/b&gt;" style="shape=partialRectangle;connectable=0;fillColor=none;top=0;left=0;bottom=0;right=0;align=left;spacingLeft=6;overflow=hidden;whiteSpace=wrap;html=1;" parent="a0v2P5sfxZpOZyoatviM-8" vertex="1">
          <mxGeometry x="30" width="150" height="30" as="geometry">
            <mxRectangle width="150" height="30" as="alternateBounds" />
          </mxGeometry>
        </mxCell>
        <mxCell id="a0v2P5sfxZpOZyoatviM-17" value="" style="endArrow=ERone;html=1;rounded=0;strokeWidth=2;startArrow=ERmany;startFill=0;endFill=0;entryX=0;entryY=0.5;entryDx=0;entryDy=0;edgeStyle=orthogonalEdgeStyle;exitX=1;exitY=0.5;exitDx=0;exitDy=0;startSize=10;endSize=10;" parent="1" source="aTb8cRAbQJP4SxeHpOCR-82" target="a0v2P5sfxZpOZyoatviM-5" edge="1">
          <mxGeometry relative="1" as="geometry">
            <mxPoint x="1024" y="250" as="sourcePoint" />
            <mxPoint x="895" y="383" as="targetPoint" />
          </mxGeometry>
        </mxCell>
        <mxCell id="E9BGw7JvG6-Icw3DdG-G-1" value="" style="shape=tableRow;horizontal=0;startSize=0;swimlaneHead=0;swimlaneBody=0;fillColor=none;collapsible=0;dropTarget=0;points=[[0,0.5],[1,0.5]];portConstraint=eastwest;top=0;left=0;right=0;bottom=0;" parent="1" vertex="1">
          <mxGeometry x="1647" y="273" width="240.00000000000045" height="50" as="geometry" />
        </mxCell>
        <mxCell id="E9BGw7JvG6-Icw3DdG-G-52" value="" style="shape=stencil(fZbdcgIhDIWfZm8zQAg/17Z9j85U606tdqz9e/tmZ0c0uJ47xP0I5JwEBl59bp8/1kNwn6fj4W39M76ctgM/DCGM++36OJ50NPDjwKvN4bh+PR6+9i/z74/n6ctp9H74nlb4nbmSKZeJCu5vngmZ6jzzNAO7cX8FVKEsBuBKrgKg9oAE8gkCbLeUhEoEQKSUDZDLeWYRKIl8MEDRmHwfyBrBG6Amyu4+kDxxMoB3jhwgYu7TVAsVkFcWCs4CTBEoF4RctKeOxHIf8IXYpikHikAIf+MNUW94AGSSaoAoFIE3AlOyeWU+p2E5S9yfQZcQILVuQOwZdJNoS9Ls3wA5u2XZTIHECqeJ9kDpSaauRiNVcAY1QhdBzeLBli5WazpkSsBLV25uRaqWRyFawTQzRRIQYirJzq5atkBqLfouwqUxLBepthWb10vrWZY6UOAeyKCCtDV625mm9gmUC4Wc3VLJMMIE1BsA2FW9JraVlQB7n3c9oMKhCLEvIM1zBPZ25/umNQ1tVEC2G+fFCC8g398O2hNQuQlVu752DBfA+q0ptnqO5JFmeuIuo9DY7KjY71UxdJV4EntifPWorW++R/dC4t7V3DlIB5cHx2bc7eb3yvX//QNFp+bHDT/+Aw==);lineShape=1;strokeColor=default;" parent="1" vertex="1">
          <mxGeometry x="1063.0377560235977" y="1147.9307291436219" width="2.5958554289526443" height="2.5917978979759937" as="geometry" />
        </mxCell>
      </root>
    </mxGraphModel>
  </diagram>
</mxfile>
